<?xml version="1.0" encoding="utf-8" standalone="no"?>
<!DOCTYPE svg PUBLIC "-//W3C//DTD SVG 1.1//EN"
  "http://www.w3.org/Graphics/SVG/1.1/DTD/svg11.dtd">
<svg xmlns:xlink="http://www.w3.org/1999/xlink" width="432pt" height="432pt" viewBox="0 0 432 432" xmlns="http://www.w3.org/2000/svg" version="1.1">
 <metadata>
  <rdf:RDF xmlns:dc="http://purl.org/dc/elements/1.1/" xmlns:cc="http://creativecommons.org/ns#" xmlns:rdf="http://www.w3.org/1999/02/22-rdf-syntax-ns#">
   <cc:Work>
    <dc:type rdf:resource="http://purl.org/dc/dcmitype/StillImage"/>
    <dc:date>2025-03-14T18:28:34.872957</dc:date>
    <dc:format>image/svg+xml</dc:format>
    <dc:creator>
     <cc:Agent>
      <dc:title>Matplotlib v3.7.5, https://matplotlib.org/</dc:title>
     </cc:Agent>
    </dc:creator>
   </cc:Work>
  </rdf:RDF>
 </metadata>
 <defs>
  <style type="text/css">*{stroke-linejoin: round; stroke-linecap: butt}</style>
 </defs>
 <g id="figure_1">
  <g id="patch_1">
   <path d="M 0 432 
L 432 432 
L 432 0 
L 0 0 
z
" style="fill: #ffffff"/>
  </g>
  <g id="axes_1">
   <g id="patch_2">
    <path d="M 54 384.48 
L 388.8 384.48 
L 388.8 51.84 
L 54 51.84 
z
" style="fill: #ffffff"/>
   </g>
   <g id="matplotlib.axis_1">
    <g id="xtick_1">
     <g id="line2d_1">
      <defs>
       <path id="mbe0b72ea47" d="M 0 0 
L 0 3.5 
" style="stroke: #000000; stroke-width: 0.8"/>
      </defs>
      <g>
       <use xlink:href="#mbe0b72ea47" x="68.912289" y="384.48" style="stroke: #000000; stroke-width: 0.8"/>
      </g>
     </g>
     <g id="text_1">
      <!-- 0 -->
      <g transform="translate(65.731039 399.078438) scale(0.1 -0.1)">
       <defs>
        <path id="DejaVuSans-30" d="M 2034 4250 
Q 1547 4250 1301 3770 
Q 1056 3291 1056 2328 
Q 1056 1369 1301 889 
Q 1547 409 2034 409 
Q 2525 409 2770 889 
Q 3016 1369 3016 2328 
Q 3016 3291 2770 3770 
Q 2525 4250 2034 4250 
z
M 2034 4750 
Q 2819 4750 3233 4129 
Q 3647 3509 3647 2328 
Q 3647 1150 3233 529 
Q 2819 -91 2034 -91 
Q 1250 -91 836 529 
Q 422 1150 422 2328 
Q 422 3509 836 4129 
Q 1250 4750 2034 4750 
z
" transform="scale(0.015625)"/>
       </defs>
       <use xlink:href="#DejaVuSans-30"/>
      </g>
     </g>
    </g>
    <g id="xtick_2">
     <g id="line2d_2">
      <g>
       <use xlink:href="#mbe0b72ea47" x="130.090909" y="384.48" style="stroke: #000000; stroke-width: 0.8"/>
      </g>
     </g>
     <g id="text_2">
      <!-- 200 -->
      <g transform="translate(120.547159 399.078438) scale(0.1 -0.1)">
       <defs>
        <path id="DejaVuSans-32" d="M 1228 531 
L 3431 531 
L 3431 0 
L 469 0 
L 469 531 
Q 828 903 1448 1529 
Q 2069 2156 2228 2338 
Q 2531 2678 2651 2914 
Q 2772 3150 2772 3378 
Q 2772 3750 2511 3984 
Q 2250 4219 1831 4219 
Q 1534 4219 1204 4116 
Q 875 4013 500 3803 
L 500 4441 
Q 881 4594 1212 4672 
Q 1544 4750 1819 4750 
Q 2544 4750 2975 4387 
Q 3406 4025 3406 3419 
Q 3406 3131 3298 2873 
Q 3191 2616 2906 2266 
Q 2828 2175 2409 1742 
Q 1991 1309 1228 531 
z
" transform="scale(0.015625)"/>
       </defs>
       <use xlink:href="#DejaVuSans-32"/>
       <use xlink:href="#DejaVuSans-30" x="63.623047"/>
       <use xlink:href="#DejaVuSans-30" x="127.246094"/>
      </g>
     </g>
    </g>
    <g id="xtick_3">
     <g id="line2d_3">
      <g>
       <use xlink:href="#mbe0b72ea47" x="191.269529" y="384.48" style="stroke: #000000; stroke-width: 0.8"/>
      </g>
     </g>
     <g id="text_3">
      <!-- 400 -->
      <g transform="translate(181.725779 399.078438) scale(0.1 -0.1)">
       <defs>
        <path id="DejaVuSans-34" d="M 2419 4116 
L 825 1625 
L 2419 1625 
L 2419 4116 
z
M 2253 4666 
L 3047 4666 
L 3047 1625 
L 3713 1625 
L 3713 1100 
L 3047 1100 
L 3047 0 
L 2419 0 
L 2419 1100 
L 313 1100 
L 313 1709 
L 2253 4666 
z
" transform="scale(0.015625)"/>
       </defs>
       <use xlink:href="#DejaVuSans-34"/>
       <use xlink:href="#DejaVuSans-30" x="63.623047"/>
       <use xlink:href="#DejaVuSans-30" x="127.246094"/>
      </g>
     </g>
    </g>
    <g id="xtick_4">
     <g id="line2d_4">
      <g>
       <use xlink:href="#mbe0b72ea47" x="252.44815" y="384.48" style="stroke: #000000; stroke-width: 0.8"/>
      </g>
     </g>
     <g id="text_4">
      <!-- 600 -->
      <g transform="translate(242.9044 399.078438) scale(0.1 -0.1)">
       <defs>
        <path id="DejaVuSans-36" d="M 2113 2584 
Q 1688 2584 1439 2293 
Q 1191 2003 1191 1497 
Q 1191 994 1439 701 
Q 1688 409 2113 409 
Q 2538 409 2786 701 
Q 3034 994 3034 1497 
Q 3034 2003 2786 2293 
Q 2538 2584 2113 2584 
z
M 3366 4563 
L 3366 3988 
Q 3128 4100 2886 4159 
Q 2644 4219 2406 4219 
Q 1781 4219 1451 3797 
Q 1122 3375 1075 2522 
Q 1259 2794 1537 2939 
Q 1816 3084 2150 3084 
Q 2853 3084 3261 2657 
Q 3669 2231 3669 1497 
Q 3669 778 3244 343 
Q 2819 -91 2113 -91 
Q 1303 -91 875 529 
Q 447 1150 447 2328 
Q 447 3434 972 4092 
Q 1497 4750 2381 4750 
Q 2619 4750 2861 4703 
Q 3103 4656 3366 4563 
z
" transform="scale(0.015625)"/>
       </defs>
       <use xlink:href="#DejaVuSans-36"/>
       <use xlink:href="#DejaVuSans-30" x="63.623047"/>
       <use xlink:href="#DejaVuSans-30" x="127.246094"/>
      </g>
     </g>
    </g>
    <g id="xtick_5">
     <g id="line2d_5">
      <g>
       <use xlink:href="#mbe0b72ea47" x="313.62677" y="384.48" style="stroke: #000000; stroke-width: 0.8"/>
      </g>
     </g>
     <g id="text_5">
      <!-- 800 -->
      <g transform="translate(304.08302 399.078438) scale(0.1 -0.1)">
       <defs>
        <path id="DejaVuSans-38" d="M 2034 2216 
Q 1584 2216 1326 1975 
Q 1069 1734 1069 1313 
Q 1069 891 1326 650 
Q 1584 409 2034 409 
Q 2484 409 2743 651 
Q 3003 894 3003 1313 
Q 3003 1734 2745 1975 
Q 2488 2216 2034 2216 
z
M 1403 2484 
Q 997 2584 770 2862 
Q 544 3141 544 3541 
Q 544 4100 942 4425 
Q 1341 4750 2034 4750 
Q 2731 4750 3128 4425 
Q 3525 4100 3525 3541 
Q 3525 3141 3298 2862 
Q 3072 2584 2669 2484 
Q 3125 2378 3379 2068 
Q 3634 1759 3634 1313 
Q 3634 634 3220 271 
Q 2806 -91 2034 -91 
Q 1263 -91 848 271 
Q 434 634 434 1313 
Q 434 1759 690 2068 
Q 947 2378 1403 2484 
z
M 1172 3481 
Q 1172 3119 1398 2916 
Q 1625 2713 2034 2713 
Q 2441 2713 2670 2916 
Q 2900 3119 2900 3481 
Q 2900 3844 2670 4047 
Q 2441 4250 2034 4250 
Q 1625 4250 1398 4047 
Q 1172 3844 1172 3481 
z
" transform="scale(0.015625)"/>
       </defs>
       <use xlink:href="#DejaVuSans-38"/>
       <use xlink:href="#DejaVuSans-30" x="63.623047"/>
       <use xlink:href="#DejaVuSans-30" x="127.246094"/>
      </g>
     </g>
    </g>
    <g id="xtick_6">
     <g id="line2d_6">
      <g>
       <use xlink:href="#mbe0b72ea47" x="374.805391" y="384.48" style="stroke: #000000; stroke-width: 0.8"/>
      </g>
     </g>
     <g id="text_6">
      <!-- 1000 -->
      <g transform="translate(362.080391 399.078438) scale(0.1 -0.1)">
       <defs>
        <path id="DejaVuSans-31" d="M 794 531 
L 1825 531 
L 1825 4091 
L 703 3866 
L 703 4441 
L 1819 4666 
L 2450 4666 
L 2450 531 
L 3481 531 
L 3481 0 
L 794 0 
L 794 531 
z
" transform="scale(0.015625)"/>
       </defs>
       <use xlink:href="#DejaVuSans-31"/>
       <use xlink:href="#DejaVuSans-30" x="63.623047"/>
       <use xlink:href="#DejaVuSans-30" x="127.246094"/>
       <use xlink:href="#DejaVuSans-30" x="190.869141"/>
      </g>
     </g>
    </g>
    <g id="text_7">
     <!-- Discharge cycles -->
     <g transform="translate(179.238281 412.756563) scale(0.1 -0.1)">
      <defs>
       <path id="DejaVuSans-44" d="M 1259 4147 
L 1259 519 
L 2022 519 
Q 2988 519 3436 956 
Q 3884 1394 3884 2338 
Q 3884 3275 3436 3711 
Q 2988 4147 2022 4147 
L 1259 4147 
z
M 628 4666 
L 1925 4666 
Q 3281 4666 3915 4102 
Q 4550 3538 4550 2338 
Q 4550 1131 3912 565 
Q 3275 0 1925 0 
L 628 0 
L 628 4666 
z
" transform="scale(0.015625)"/>
       <path id="DejaVuSans-69" d="M 603 3500 
L 1178 3500 
L 1178 0 
L 603 0 
L 603 3500 
z
M 603 4863 
L 1178 4863 
L 1178 4134 
L 603 4134 
L 603 4863 
z
" transform="scale(0.015625)"/>
       <path id="DejaVuSans-73" d="M 2834 3397 
L 2834 2853 
Q 2591 2978 2328 3040 
Q 2066 3103 1784 3103 
Q 1356 3103 1142 2972 
Q 928 2841 928 2578 
Q 928 2378 1081 2264 
Q 1234 2150 1697 2047 
L 1894 2003 
Q 2506 1872 2764 1633 
Q 3022 1394 3022 966 
Q 3022 478 2636 193 
Q 2250 -91 1575 -91 
Q 1294 -91 989 -36 
Q 684 19 347 128 
L 347 722 
Q 666 556 975 473 
Q 1284 391 1588 391 
Q 1994 391 2212 530 
Q 2431 669 2431 922 
Q 2431 1156 2273 1281 
Q 2116 1406 1581 1522 
L 1381 1569 
Q 847 1681 609 1914 
Q 372 2147 372 2553 
Q 372 3047 722 3315 
Q 1072 3584 1716 3584 
Q 2034 3584 2315 3537 
Q 2597 3491 2834 3397 
z
" transform="scale(0.015625)"/>
       <path id="DejaVuSans-63" d="M 3122 3366 
L 3122 2828 
Q 2878 2963 2633 3030 
Q 2388 3097 2138 3097 
Q 1578 3097 1268 2742 
Q 959 2388 959 1747 
Q 959 1106 1268 751 
Q 1578 397 2138 397 
Q 2388 397 2633 464 
Q 2878 531 3122 666 
L 3122 134 
Q 2881 22 2623 -34 
Q 2366 -91 2075 -91 
Q 1284 -91 818 406 
Q 353 903 353 1747 
Q 353 2603 823 3093 
Q 1294 3584 2113 3584 
Q 2378 3584 2631 3529 
Q 2884 3475 3122 3366 
z
" transform="scale(0.015625)"/>
       <path id="DejaVuSans-68" d="M 3513 2113 
L 3513 0 
L 2938 0 
L 2938 2094 
Q 2938 2591 2744 2837 
Q 2550 3084 2163 3084 
Q 1697 3084 1428 2787 
Q 1159 2491 1159 1978 
L 1159 0 
L 581 0 
L 581 4863 
L 1159 4863 
L 1159 2956 
Q 1366 3272 1645 3428 
Q 1925 3584 2291 3584 
Q 2894 3584 3203 3211 
Q 3513 2838 3513 2113 
z
" transform="scale(0.015625)"/>
       <path id="DejaVuSans-61" d="M 2194 1759 
Q 1497 1759 1228 1600 
Q 959 1441 959 1056 
Q 959 750 1161 570 
Q 1363 391 1709 391 
Q 2188 391 2477 730 
Q 2766 1069 2766 1631 
L 2766 1759 
L 2194 1759 
z
M 3341 1997 
L 3341 0 
L 2766 0 
L 2766 531 
Q 2569 213 2275 61 
Q 1981 -91 1556 -91 
Q 1019 -91 701 211 
Q 384 513 384 1019 
Q 384 1609 779 1909 
Q 1175 2209 1959 2209 
L 2766 2209 
L 2766 2266 
Q 2766 2663 2505 2880 
Q 2244 3097 1772 3097 
Q 1472 3097 1187 3025 
Q 903 2953 641 2809 
L 641 3341 
Q 956 3463 1253 3523 
Q 1550 3584 1831 3584 
Q 2591 3584 2966 3190 
Q 3341 2797 3341 1997 
z
" transform="scale(0.015625)"/>
       <path id="DejaVuSans-72" d="M 2631 2963 
Q 2534 3019 2420 3045 
Q 2306 3072 2169 3072 
Q 1681 3072 1420 2755 
Q 1159 2438 1159 1844 
L 1159 0 
L 581 0 
L 581 3500 
L 1159 3500 
L 1159 2956 
Q 1341 3275 1631 3429 
Q 1922 3584 2338 3584 
Q 2397 3584 2469 3576 
Q 2541 3569 2628 3553 
L 2631 2963 
z
" transform="scale(0.015625)"/>
       <path id="DejaVuSans-67" d="M 2906 1791 
Q 2906 2416 2648 2759 
Q 2391 3103 1925 3103 
Q 1463 3103 1205 2759 
Q 947 2416 947 1791 
Q 947 1169 1205 825 
Q 1463 481 1925 481 
Q 2391 481 2648 825 
Q 2906 1169 2906 1791 
z
M 3481 434 
Q 3481 -459 3084 -895 
Q 2688 -1331 1869 -1331 
Q 1566 -1331 1297 -1286 
Q 1028 -1241 775 -1147 
L 775 -588 
Q 1028 -725 1275 -790 
Q 1522 -856 1778 -856 
Q 2344 -856 2625 -561 
Q 2906 -266 2906 331 
L 2906 616 
Q 2728 306 2450 153 
Q 2172 0 1784 0 
Q 1141 0 747 490 
Q 353 981 353 1791 
Q 353 2603 747 3093 
Q 1141 3584 1784 3584 
Q 2172 3584 2450 3431 
Q 2728 3278 2906 2969 
L 2906 3500 
L 3481 3500 
L 3481 434 
z
" transform="scale(0.015625)"/>
       <path id="DejaVuSans-65" d="M 3597 1894 
L 3597 1613 
L 953 1613 
Q 991 1019 1311 708 
Q 1631 397 2203 397 
Q 2534 397 2845 478 
Q 3156 559 3463 722 
L 3463 178 
Q 3153 47 2828 -22 
Q 2503 -91 2169 -91 
Q 1331 -91 842 396 
Q 353 884 353 1716 
Q 353 2575 817 3079 
Q 1281 3584 2069 3584 
Q 2775 3584 3186 3129 
Q 3597 2675 3597 1894 
z
M 3022 2063 
Q 3016 2534 2758 2815 
Q 2500 3097 2075 3097 
Q 1594 3097 1305 2825 
Q 1016 2553 972 2059 
L 3022 2063 
z
" transform="scale(0.015625)"/>
       <path id="DejaVuSans-20" transform="scale(0.015625)"/>
       <path id="DejaVuSans-79" d="M 2059 -325 
Q 1816 -950 1584 -1140 
Q 1353 -1331 966 -1331 
L 506 -1331 
L 506 -850 
L 844 -850 
Q 1081 -850 1212 -737 
Q 1344 -625 1503 -206 
L 1606 56 
L 191 3500 
L 800 3500 
L 1894 763 
L 2988 3500 
L 3597 3500 
L 2059 -325 
z
" transform="scale(0.015625)"/>
       <path id="DejaVuSans-6c" d="M 603 4863 
L 1178 4863 
L 1178 0 
L 603 0 
L 603 4863 
z
" transform="scale(0.015625)"/>
      </defs>
      <use xlink:href="#DejaVuSans-44"/>
      <use xlink:href="#DejaVuSans-69" x="77.001953"/>
      <use xlink:href="#DejaVuSans-73" x="104.785156"/>
      <use xlink:href="#DejaVuSans-63" x="156.884766"/>
      <use xlink:href="#DejaVuSans-68" x="211.865234"/>
      <use xlink:href="#DejaVuSans-61" x="275.244141"/>
      <use xlink:href="#DejaVuSans-72" x="336.523438"/>
      <use xlink:href="#DejaVuSans-67" x="375.886719"/>
      <use xlink:href="#DejaVuSans-65" x="439.363281"/>
      <use xlink:href="#DejaVuSans-20" x="500.886719"/>
      <use xlink:href="#DejaVuSans-63" x="532.673828"/>
      <use xlink:href="#DejaVuSans-79" x="587.654297"/>
      <use xlink:href="#DejaVuSans-63" x="646.833984"/>
      <use xlink:href="#DejaVuSans-6c" x="701.814453"/>
      <use xlink:href="#DejaVuSans-65" x="729.597656"/>
      <use xlink:href="#DejaVuSans-73" x="791.121094"/>
     </g>
    </g>
   </g>
   <g id="matplotlib.axis_2">
    <g id="ytick_1">
     <g id="line2d_7">
      <defs>
       <path id="m5022f51cd5" d="M 0 0 
L -3.5 0 
" style="stroke: #000000; stroke-width: 0.8"/>
      </defs>
      <g>
       <use xlink:href="#m5022f51cd5" x="54" y="350.40358" style="stroke: #000000; stroke-width: 0.8"/>
      </g>
     </g>
     <g id="text_8">
      <!-- 0.2 -->
      <g transform="translate(31.096875 354.202799) scale(0.1 -0.1)">
       <defs>
        <path id="DejaVuSans-2e" d="M 684 794 
L 1344 794 
L 1344 0 
L 684 0 
L 684 794 
z
" transform="scale(0.015625)"/>
       </defs>
       <use xlink:href="#DejaVuSans-30"/>
       <use xlink:href="#DejaVuSans-2e" x="63.623047"/>
       <use xlink:href="#DejaVuSans-32" x="95.410156"/>
      </g>
     </g>
    </g>
    <g id="ytick_2">
     <g id="line2d_8">
      <g>
       <use xlink:href="#m5022f51cd5" x="54" y="289.696454" style="stroke: #000000; stroke-width: 0.8"/>
      </g>
     </g>
     <g id="text_9">
      <!-- 0.4 -->
      <g transform="translate(31.096875 293.495673) scale(0.1 -0.1)">
       <use xlink:href="#DejaVuSans-30"/>
       <use xlink:href="#DejaVuSans-2e" x="63.623047"/>
       <use xlink:href="#DejaVuSans-34" x="95.410156"/>
      </g>
     </g>
    </g>
    <g id="ytick_3">
     <g id="line2d_9">
      <g>
       <use xlink:href="#m5022f51cd5" x="54" y="228.989327" style="stroke: #000000; stroke-width: 0.8"/>
      </g>
     </g>
     <g id="text_10">
      <!-- 0.6 -->
      <g transform="translate(31.096875 232.788546) scale(0.1 -0.1)">
       <use xlink:href="#DejaVuSans-30"/>
       <use xlink:href="#DejaVuSans-2e" x="63.623047"/>
       <use xlink:href="#DejaVuSans-36" x="95.410156"/>
      </g>
     </g>
    </g>
    <g id="ytick_4">
     <g id="line2d_10">
      <g>
       <use xlink:href="#m5022f51cd5" x="54" y="168.282201" style="stroke: #000000; stroke-width: 0.8"/>
      </g>
     </g>
     <g id="text_11">
      <!-- 0.8 -->
      <g transform="translate(31.096875 172.08142) scale(0.1 -0.1)">
       <use xlink:href="#DejaVuSans-30"/>
       <use xlink:href="#DejaVuSans-2e" x="63.623047"/>
       <use xlink:href="#DejaVuSans-38" x="95.410156"/>
      </g>
     </g>
    </g>
    <g id="ytick_5">
     <g id="line2d_11">
      <g>
       <use xlink:href="#m5022f51cd5" x="54" y="107.575074" style="stroke: #000000; stroke-width: 0.8"/>
      </g>
     </g>
     <g id="text_12">
      <!-- 1.0 -->
      <g transform="translate(31.096875 111.374293) scale(0.1 -0.1)">
       <use xlink:href="#DejaVuSans-31"/>
       <use xlink:href="#DejaVuSans-2e" x="63.623047"/>
       <use xlink:href="#DejaVuSans-30" x="95.410156"/>
      </g>
     </g>
    </g>
    <g id="text_13">
     <!-- Capacity (Ah) -->
     <g transform="translate(25.017187 252.09125) rotate(-90) scale(0.1 -0.1)">
      <defs>
       <path id="DejaVuSans-43" d="M 4122 4306 
L 4122 3641 
Q 3803 3938 3442 4084 
Q 3081 4231 2675 4231 
Q 1875 4231 1450 3742 
Q 1025 3253 1025 2328 
Q 1025 1406 1450 917 
Q 1875 428 2675 428 
Q 3081 428 3442 575 
Q 3803 722 4122 1019 
L 4122 359 
Q 3791 134 3420 21 
Q 3050 -91 2638 -91 
Q 1578 -91 968 557 
Q 359 1206 359 2328 
Q 359 3453 968 4101 
Q 1578 4750 2638 4750 
Q 3056 4750 3426 4639 
Q 3797 4528 4122 4306 
z
" transform="scale(0.015625)"/>
       <path id="DejaVuSans-70" d="M 1159 525 
L 1159 -1331 
L 581 -1331 
L 581 3500 
L 1159 3500 
L 1159 2969 
Q 1341 3281 1617 3432 
Q 1894 3584 2278 3584 
Q 2916 3584 3314 3078 
Q 3713 2572 3713 1747 
Q 3713 922 3314 415 
Q 2916 -91 2278 -91 
Q 1894 -91 1617 61 
Q 1341 213 1159 525 
z
M 3116 1747 
Q 3116 2381 2855 2742 
Q 2594 3103 2138 3103 
Q 1681 3103 1420 2742 
Q 1159 2381 1159 1747 
Q 1159 1113 1420 752 
Q 1681 391 2138 391 
Q 2594 391 2855 752 
Q 3116 1113 3116 1747 
z
" transform="scale(0.015625)"/>
       <path id="DejaVuSans-74" d="M 1172 4494 
L 1172 3500 
L 2356 3500 
L 2356 3053 
L 1172 3053 
L 1172 1153 
Q 1172 725 1289 603 
Q 1406 481 1766 481 
L 2356 481 
L 2356 0 
L 1766 0 
Q 1100 0 847 248 
Q 594 497 594 1153 
L 594 3053 
L 172 3053 
L 172 3500 
L 594 3500 
L 594 4494 
L 1172 4494 
z
" transform="scale(0.015625)"/>
       <path id="DejaVuSans-28" d="M 1984 4856 
Q 1566 4138 1362 3434 
Q 1159 2731 1159 2009 
Q 1159 1288 1364 580 
Q 1569 -128 1984 -844 
L 1484 -844 
Q 1016 -109 783 600 
Q 550 1309 550 2009 
Q 550 2706 781 3412 
Q 1013 4119 1484 4856 
L 1984 4856 
z
" transform="scale(0.015625)"/>
       <path id="DejaVuSans-41" d="M 2188 4044 
L 1331 1722 
L 3047 1722 
L 2188 4044 
z
M 1831 4666 
L 2547 4666 
L 4325 0 
L 3669 0 
L 3244 1197 
L 1141 1197 
L 716 0 
L 50 0 
L 1831 4666 
z
" transform="scale(0.015625)"/>
       <path id="DejaVuSans-29" d="M 513 4856 
L 1013 4856 
Q 1481 4119 1714 3412 
Q 1947 2706 1947 2009 
Q 1947 1309 1714 600 
Q 1481 -109 1013 -844 
L 513 -844 
Q 928 -128 1133 580 
Q 1338 1288 1338 2009 
Q 1338 2731 1133 3434 
Q 928 4138 513 4856 
z
" transform="scale(0.015625)"/>
      </defs>
      <use xlink:href="#DejaVuSans-43"/>
      <use xlink:href="#DejaVuSans-61" x="69.824219"/>
      <use xlink:href="#DejaVuSans-70" x="131.103516"/>
      <use xlink:href="#DejaVuSans-61" x="194.580078"/>
      <use xlink:href="#DejaVuSans-63" x="255.859375"/>
      <use xlink:href="#DejaVuSans-69" x="310.839844"/>
      <use xlink:href="#DejaVuSans-74" x="338.623047"/>
      <use xlink:href="#DejaVuSans-79" x="377.832031"/>
      <use xlink:href="#DejaVuSans-20" x="437.011719"/>
      <use xlink:href="#DejaVuSans-28" x="468.798828"/>
      <use xlink:href="#DejaVuSans-41" x="507.8125"/>
      <use xlink:href="#DejaVuSans-68" x="576.220703"/>
      <use xlink:href="#DejaVuSans-29" x="639.599609"/>
     </g>
    </g>
   </g>
   <g id="line2d_12">
    <path d="M 69.218182 69.212873 
L 69.829968 69.339993 
L 70.135861 71.603769 
L 70.441754 71.99764 
L 70.747647 73.046818 
L 71.05354 77.580247 
L 71.359434 78.380918 
L 71.665327 80.295984 
L 71.97122 80.990727 
L 72.277113 78.815712 
L 72.583006 78.566694 
L 73.500685 78.798665 
L 74.418365 79.206203 
L 74.724258 79.427238 
L 75.030151 80.604817 
L 76.865509 81.350297 
L 77.477296 86.84926 
L 77.783189 88.795012 
L 78.394975 89.645118 
L 78.700868 86.803636 
L 79.006761 86.39904 
L 79.618547 91.547228 
L 80.230333 92.158944 
L 80.536227 92.467789 
L 80.84212 89.616229 
L 81.148013 89.22444 
L 81.453906 90.081668 
L 81.759799 92.922285 
L 82.065692 94.403812 
L 82.371585 94.548307 
L 82.677478 94.82134 
L 82.983371 92.481944 
L 83.289265 91.819686 
L 83.595158 90.477925 
L 83.901051 94.988297 
L 84.512837 95.2864 
L 84.81873 95.672791 
L 85.124623 81.168008 
L 85.430516 83.107859 
L 85.736409 81.243539 
L 86.042302 81.301362 
L 86.654089 86.276507 
L 86.959982 86.714887 
L 87.265875 89.370902 
L 87.571768 89.08909 
L 87.877661 89.46062 
L 88.183554 92.041027 
L 88.489447 92.363572 
L 88.79534 94.114588 
L 89.101233 94.347087 
L 89.407127 94.998418 
L 89.71302 94.727492 
L 90.018913 94.839999 
L 90.324806 97.060004 
L 90.630699 97.423792 
L 91.242485 97.732253 
L 91.548378 99.775881 
L 91.854271 97.83664 
L 92.466058 98.048765 
L 92.771951 98.358517 
L 93.077844 99.872143 
L 93.383737 99.890486 
L 93.68963 100.069651 
L 94.301416 100.569457 
L 95.219095 101.044367 
L 95.524989 102.535267 
L 95.830882 101.19565 
L 96.136775 102.794248 
L 96.748561 103.086243 
L 97.054454 105.893739 
L 97.360347 106.326032 
L 97.66624 107.958264 
L 97.972133 108.22957 
L 98.278026 102.65896 
L 98.58392 102.864644 
L 98.889813 103.245565 
L 99.195706 100.607717 
L 99.501599 100.564652 
L 99.807492 103.435622 
L 100.113385 94.793158 
L 100.419278 94.959413 
L 100.725171 92.49513 
L 101.031064 92.331828 
L 101.336958 97.098863 
L 101.642851 97.192378 
L 101.948744 97.050934 
L 102.56053 97.75571 
L 102.866423 95.0787 
L 103.172316 95.004507 
L 103.784102 99.948878 
L 104.089995 100.362096 
L 104.395889 100.583487 
L 104.701782 102.468091 
L 105.007675 98.198352 
L 105.313568 98.065522 
L 105.925354 103.418765 
L 106.231247 103.310189 
L 106.53714 105.321402 
L 107.148926 101.129156 
L 107.760713 101.107292 
L 109.596071 101.506412 
L 109.901964 102.724329 
L 110.513751 102.853021 
L 111.125537 102.875513 
L 111.43143 102.739758 
L 111.737323 101.511379 
L 112.043216 108.362961 
L 112.349109 108.118569 
L 112.655002 108.625244 
L 112.960895 108.782693 
L 113.266788 109.21289 
L 113.572682 106.119528 
L 113.878575 105.953616 
L 114.184468 110.845536 
L 114.490361 111.268997 
L 115.102147 106.129045 
L 115.40804 106.069687 
L 115.713933 110.973985 
L 116.019826 109.388518 
L 116.32572 109.281811 
L 116.631613 109.450056 
L 116.937506 109.212949 
L 117.243399 106.68954 
L 117.549292 106.376159 
L 117.855185 110.876811 
L 118.466971 111.432975 
L 118.772864 111.113001 
L 119.384651 106.724314 
L 119.690544 106.557959 
L 119.996437 111.500005 
L 120.30233 110.991389 
L 120.914116 106.510811 
L 122.443582 106.237606 
L 123.055368 105.976442 
L 126.114299 105.763084 
L 126.420192 108.68876 
L 126.726085 109.146859 
L 127.031978 109.238138 
L 127.337871 111.100839 
L 127.643764 111.481234 
L 127.949657 108.73195 
L 128.25555 107.081296 
L 128.561444 108.389265 
L 128.867337 111.552412 
L 129.17323 99.464074 
L 129.479123 97.586922 
L 129.785016 97.157637 
L 130.090909 97.004775 
L 131.314481 97.007468 
L 132.232161 97.312609 
L 132.538054 97.531088 
L 134.067519 97.986817 
L 134.679306 103.330948 
L 134.985199 103.190201 
L 135.291092 103.472195 
L 135.596985 105.391212 
L 136.208771 101.176113 
L 136.514664 102.9981 
L 136.820557 106.018458 
L 137.12645 106.202617 
L 137.432344 107.845924 
L 137.738237 108.300235 
L 138.04413 105.448252 
L 138.350023 105.254138 
L 138.655916 108.115617 
L 138.961809 108.823991 
L 139.267702 108.998375 
L 139.573595 110.665823 
L 139.879488 111.054315 
L 140.185381 108.186486 
L 140.491275 106.458333 
L 141.103061 111.551946 
L 141.408954 111.494181 
L 142.02074 111.727406 
L 142.326633 110.897599 
L 142.632526 108.964714 
L 142.938419 108.881206 
L 143.244312 113.790401 
L 143.550206 114.011236 
L 144.161992 108.598372 
L 144.773778 108.528674 
L 146.609137 108.670503 
L 148.138602 108.833663 
L 149.056281 108.964387 
L 149.362175 113.958947 
L 149.668068 114.32837 
L 149.973961 114.382749 
L 150.279854 111.728736 
L 150.585747 111.49014 
L 151.197533 116.54707 
L 151.809319 116.68689 
L 152.115212 114.123998 
L 152.421106 113.755267 
L 152.726999 112.038652 
L 153.032892 117.005105 
L 153.338785 117.183955 
L 153.644678 117.22317 
L 154.256464 117.142937 
L 154.562357 114.307454 
L 154.86825 114.127044 
L 155.480037 119.016724 
L 155.78593 118.951883 
L 156.397716 119.409069 
L 157.009502 114.671699 
L 157.315395 116.328757 
L 157.621288 119.654875 
L 157.927181 119.603921 
L 158.233074 118.951044 
L 158.538968 119.123098 
L 158.844861 116.320995 
L 159.150754 114.689264 
L 160.068433 114.651787 
L 160.374326 114.433863 
L 161.597899 114.281399 
L 163.73915 114.151039 
L 164.350937 119.450773 
L 164.962723 119.458476 
L 165.268616 119.703889 
L 165.574509 117.170555 
L 165.880402 116.651009 
L 166.186295 119.50967 
L 166.492188 119.783252 
L 166.798081 119.680372 
L 167.103974 119.954693 
L 167.409868 121.807567 
L 167.715761 117.184318 
L 168.021654 116.790173 
L 168.63344 121.718568 
L 168.939333 120.007792 
L 169.245226 119.907595 
L 169.551119 120.018673 
L 169.857012 119.391069 
L 170.162905 117.046579 
L 170.468799 116.827023 
L 170.774692 119.812115 
L 171.080585 120.092388 
L 171.386478 120.062476 
L 171.692371 121.724077 
L 171.998264 121.882745 
L 172.304157 119.609191 
L 172.61005 122.103346 
L 172.915943 122.275851 
L 173.221836 119.826551 
L 173.52773 119.950545 
L 173.833623 121.743587 
L 174.139516 119.050818 
L 174.445409 117.395042 
L 175.363088 117.246491 
L 175.668981 117.200786 
L 175.974874 116.876703 
L 176.280767 116.273552 
L 176.586661 114.432122 
L 176.892554 114.318022 
L 177.198447 116.986836 
L 177.50434 117.007778 
L 178.116126 116.286937 
L 178.422019 116.316878 
L 178.727912 114.30808 
L 179.033805 114.188992 
L 179.339698 116.23125 
L 179.645592 116.815914 
L 179.951485 116.856777 
L 180.257378 116.453115 
L 180.563271 116.459819 
L 180.869164 114.831526 
L 181.175057 114.521732 
L 181.48095 114.478561 
L 181.786843 117.050098 
L 182.704523 117.244528 
L 183.010416 118.994174 
L 183.316309 116.677403 
L 183.622202 116.434508 
L 183.928095 117.041519 
L 184.233988 119.113095 
L 184.539881 118.973908 
L 184.845774 117.350739 
L 185.457561 117.129937 
L 185.763454 116.603627 
L 186.37524 116.445972 
L 186.987026 116.421528 
L 187.292919 114.871912 
L 188.210598 114.777024 
L 190.35185 114.862036 
L 190.657743 114.918309 
L 190.963636 117.337471 
L 191.269529 113.32353 
L 191.575423 113.633486 
L 191.881316 113.431073 
L 192.187209 111.095477 
L 192.493102 110.862527 
L 192.798995 113.401433 
L 193.104888 113.628425 
L 193.410781 113.534496 
L 193.716674 113.621326 
L 194.022567 113.954854 
L 194.32846 111.621881 
L 194.634354 111.479205 
L 194.940247 111.810649 
L 195.24614 114.356298 
L 195.857926 114.296803 
L 196.163819 116.845823 
L 196.469712 116.795163 
L 196.775605 114.27697 
L 197.081498 114.119437 
L 197.693285 119.392881 
L 197.999178 119.535524 
L 198.305071 117.195917 
L 198.610964 116.863064 
L 199.22275 116.698559 
L 200.140429 116.516165 
L 200.446323 116.588471 
L 200.752216 116.828706 
L 201.975788 117.098014 
L 203.19936 117.269172 
L 203.505254 122.546171 
L 203.811147 124.507461 
L 204.11704 125.16368 
L 204.422933 125.272141 
L 204.728826 127.274664 
L 205.034719 122.355144 
L 205.340612 121.939695 
L 205.646505 124.488859 
L 205.952398 124.771583 
L 206.258291 122.636902 
L 206.564185 121.908791 
L 206.870078 121.796125 
L 207.481864 127.440358 
L 207.787757 127.679266 
L 208.09365 127.763571 
L 208.399543 130.092759 
L 208.705436 128.195909 
L 209.011329 127.487271 
L 209.317222 124.929675 
L 209.623116 124.550069 
L 209.929009 127.556758 
L 210.234902 127.940659 
L 210.540795 127.976192 
L 210.846688 128.200917 
L 211.152581 130.067474 
L 211.764367 125.315588 
L 212.07026 125.516199 
L 212.376153 130.061547 
L 212.682047 130.061076 
L 212.98794 130.446652 
L 213.293833 130.624029 
L 213.599726 130.672611 
L 213.905619 127.957233 
L 214.211512 127.711939 
L 214.517405 130.537714 
L 214.823298 130.805076 
L 215.129191 130.659792 
L 215.740978 130.818274 
L 216.046871 130.213794 
L 216.352764 128.191229 
L 216.658657 128.112855 
L 216.96455 132.833817 
L 217.882229 132.823857 
L 218.188122 133.142866 
L 218.494016 130.535676 
L 218.799909 130.327699 
L 219.411695 130.264846 
L 220.94116 130.399806 
L 221.552947 130.550516 
L 221.85884 130.606319 
L 222.470626 130.840615 
L 222.776519 132.819352 
L 223.082412 133.060332 
L 223.388305 132.816989 
L 223.694198 130.730499 
L 224.000091 130.728705 
L 224.611878 135.617823 
L 224.917771 135.61263 
L 225.529557 135.999662 
L 225.83545 133.654373 
L 226.141343 133.467769 
L 226.447236 133.413242 
L 227.059022 138.397738 
L 227.976702 138.464716 
L 228.282595 136.062991 
L 228.588488 135.965538 
L 228.894381 136.373364 
L 229.506167 141.199571 
L 229.81206 138.953354 
L 230.117953 141.200113 
L 230.423847 141.335629 
L 230.72974 138.493699 
L 231.035633 138.39367 
L 231.341526 139.184801 
L 231.647419 141.570593 
L 231.953312 141.298124 
L 232.259205 141.328139 
L 232.565098 141.510199 
L 232.870991 141.323998 
L 233.176884 139.106253 
L 236.235815 138.917465 
L 236.847602 138.998847 
L 237.459388 138.990691 
L 237.765281 144.002691 
L 238.071174 144.25114 
L 238.377067 144.084808 
L 238.68296 141.764312 
L 238.988853 141.696843 
L 239.294746 144.342331 
L 239.60064 144.555026 
L 239.906533 144.614422 
L 240.212426 144.540449 
L 240.518319 144.607197 
L 241.130105 143.962098 
L 241.435998 143.967853 
L 241.741891 146.763297 
L 242.047784 147.036511 
L 242.353677 146.924424 
L 242.965464 147.117907 
L 243.271357 146.74749 
L 243.57725 146.744612 
L 243.883143 144.70063 
L 244.189036 149.544521 
L 244.494929 149.696559 
L 244.800822 149.686218 
L 245.412608 149.984813 
L 245.718502 147.258954 
L 246.024395 147.00335 
L 246.330288 146.902251 
L 246.636181 149.900163 
L 247.247967 149.585572 
L 247.55386 149.62203 
L 247.859753 147.350826 
L 248.165646 146.971857 
L 248.777433 146.7809 
L 250.918684 146.821593 
L 252.142257 147.051986 
L 252.44815 146.82331 
L 252.754043 147.220584 
L 253.059936 149.526871 
L 253.365829 146.859578 
L 253.671722 146.883574 
L 254.283508 152.300418 
L 255.507081 152.340065 
L 256.118867 147.431165 
L 256.730653 152.411561 
L 257.036546 152.563107 
L 257.342439 152.427913 
L 257.954226 152.720044 
L 258.260119 150.000394 
L 258.566012 149.83971 
L 258.871905 150.043486 
L 259.177798 155.063428 
L 259.483691 155.45926 
L 259.789584 146.893946 
L 260.095477 150.105092 
L 260.707264 163.427136 
L 261.013157 158.476097 
L 261.31905 158.460967 
L 261.624943 160.60215 
L 262.236729 171.788018 
L 262.542622 171.904587 
L 262.848515 174.569914 
L 263.154408 174.57443 
L 263.766195 169.381744 
L 264.072088 171.863389 
L 264.377981 177.352593 
L 264.683874 177.357233 
L 264.989767 180.147734 
L 265.29566 180.146355 
L 265.601553 182.930685 
L 265.907446 177.652001 
L 266.213339 177.337433 
L 266.519233 177.332151 
L 266.825126 182.921661 
L 267.131019 185.715681 
L 268.354591 185.712704 
L 268.660484 188.503616 
L 269.27227 188.507624 
L 269.578164 191.283231 
L 269.884057 191.288618 
L 270.495843 185.703418 
L 270.801736 185.700627 
L 271.107629 185.83888 
L 271.413522 185.693794 
L 271.719415 185.854996 
L 272.025308 185.691947 
L 273.860667 185.786509 
L 274.16656 185.873164 
L 274.472453 188.475143 
L 274.778346 177.340031 
L 275.084239 180.149441 
L 275.390132 185.684619 
L 276.001919 185.750832 
L 276.307812 185.866023 
L 276.613705 188.474213 
L 277.225491 188.468611 
L 277.531384 191.251053 
L 278.449063 191.343561 
L 278.754957 194.055324 
L 279.06085 194.057842 
L 279.366743 191.380942 
L 279.672636 191.249436 
L 280.284422 196.827991 
L 280.896208 196.836231 
L 281.202101 199.612544 
L 282.731567 199.619453 
L 283.03746 202.404958 
L 283.343353 202.408602 
L 283.649246 205.197673 
L 285.178712 205.18852 
L 285.484605 207.980386 
L 286.708177 207.979947 
L 287.01407 210.757165 
L 288.237643 210.766059 
L 288.543536 199.652709 
L 288.849429 205.193219 
L 289.155322 207.976709 
L 289.461215 207.982199 
L 289.767108 210.761704 
L 291.296574 210.758096 
L 291.90836 216.327156 
L 292.214253 216.331744 
L 292.520146 219.113179 
L 292.826039 219.117943 
L 293.131932 221.894928 
L 294.355505 221.89955 
L 294.661398 219.119936 
L 295.273184 224.698654 
L 295.88497 224.70004 
L 296.190863 227.482838 
L 296.80265 227.477272 
L 297.108543 224.688574 
L 297.414436 227.479707 
L 297.720329 227.471782 
L 298.026222 230.259994 
L 298.332115 230.261546 
L 298.638008 233.046836 
L 299.555688 233.044561 
L 299.861581 235.830469 
L 300.473367 235.83293 
L 300.77926 230.249404 
L 301.085153 227.461602 
L 303.226405 227.453348 
L 304.75587 241.380079 
L 305.061763 241.374975 
L 305.367656 244.157602 
L 306.591229 244.160942 
L 306.897122 246.935298 
L 307.508908 246.937188 
L 308.120694 252.506672 
L 308.426587 252.505792 
L 308.732481 249.71801 
L 309.65016 249.716625 
L 309.956053 246.930677 
L 310.261946 249.716767 
L 310.567839 249.717502 
L 310.873732 252.504362 
L 311.485519 252.502536 
L 312.403198 260.851166 
L 313.62677 260.84392 
L 313.932663 263.625293 
L 314.238556 263.62706 
L 314.54445 260.845802 
L 314.850343 269.193367 
L 315.462129 274.758773 
L 315.768022 280.323078 
L 316.073915 283.112522 
L 316.379808 283.109712 
L 316.685701 288.673768 
L 316.991594 291.461982 
L 318.52106 291.461048 
L 319.132846 297.021928 
L 319.438739 297.021918 
L 319.744632 299.811588 
L 320.050525 333.200033 
L 320.356418 302.59149 
L 320.968205 302.580982 
L 321.579991 308.148776 
L 321.885884 305.366428 
L 322.191777 305.366436 
L 322.49767 302.579122 
L 322.803563 302.584152 
L 323.721243 310.936507 
L 324.027136 310.93561 
L 324.333029 313.718271 
L 324.638922 313.717342 
L 324.944815 316.500065 
L 325.556601 316.498238 
L 325.862494 319.283993 
L 326.168387 316.500053 
L 326.780174 316.502475 
L 327.086067 319.2846 
L 327.697853 319.281953 
L 328.003746 322.063223 
L 328.309639 269.193367 
L 328.921425 274.758773 
L 329.227318 280.323078 
L 329.533212 283.112522 
L 329.839105 283.109712 
L 330.450891 288.678353 
L 330.756784 288.673768 
L 331.062677 291.461982 
L 332.592143 291.461048 
L 333.203929 297.021928 
L 333.509822 297.021918 
L 333.815715 299.811588 
L 334.121608 333.200033 
L 334.427501 302.59149 
L 335.039287 302.580982 
L 335.651074 308.148776 
L 335.956967 305.366428 
L 336.26286 305.366436 
L 336.568753 302.579122 
L 336.874646 302.584152 
L 337.792325 310.936507 
L 338.098218 310.93561 
L 338.404111 313.718271 
L 338.710005 313.717342 
L 338.710005 313.717342 
" clip-path="url(#pba74420553)" style="fill: none; stroke-dasharray: 3.7,1.6; stroke-dashoffset: 0; stroke: #0000ff"/>
   </g>
   <g id="line2d_13">
    <path d="M 69.218182 66.96 
L 69.829968 67.256858 
L 70.135861 69.01595 
L 70.441754 69.113563 
L 70.747647 69.857428 
L 71.359434 74.499824 
L 71.97122 75.469492 
L 72.277113 74.709159 
L 72.583006 73.296133 
L 73.194792 73.337115 
L 74.112471 73.575228 
L 74.418365 74.793093 
L 75.641937 75.255493 
L 76.253723 75.450027 
L 76.865509 75.661804 
L 77.477296 80.527044 
L 78.394975 81.475661 
L 78.700868 79.034858 
L 79.006761 78.749068 
L 79.618547 83.461189 
L 79.92444 83.539903 
L 80.230333 83.759935 
L 80.536227 83.695624 
L 80.84212 81.282512 
L 81.148013 81.144097 
L 81.453906 83.962068 
L 81.759799 84.269368 
L 82.065692 84.363055 
L 82.371585 85.773808 
L 82.677478 85.986785 
L 82.983371 83.446162 
L 83.289265 83.200095 
L 83.595158 85.862829 
L 84.81873 86.72169 
L 85.124623 75.694947 
L 85.430516 77.49683 
L 85.736409 75.70791 
L 86.042302 75.774963 
L 86.654089 80.304344 
L 86.959982 80.66479 
L 87.265875 83.061212 
L 87.571768 81.443924 
L 87.877661 83.046487 
L 88.183554 83.935732 
L 88.489447 85.566482 
L 89.101233 86.00335 
L 89.407127 86.501419 
L 89.71302 86.294667 
L 90.018913 86.387088 
L 90.324806 88.422943 
L 91.242485 88.795956 
L 91.548378 89.062118 
L 91.854271 88.709647 
L 93.077844 89.102173 
L 93.383737 124.744974 
L 93.68963 124.860946 
L 93.995523 89.372037 
L 94.913202 89.620414 
L 95.219095 125.60678 
L 95.524989 89.839858 
L 95.830882 89.797991 
L 96.136775 91.335368 
L 96.748561 91.6381 
L 97.054454 93.956556 
L 97.66624 94.376135 
L 97.972133 91.813087 
L 98.58392 91.954746 
L 98.889813 89.792702 
L 99.195706 89.629424 
L 99.501599 91.752884 
L 99.807492 92.199653 
L 100.419278 92.2748 
L 100.725171 94.033983 
L 101.031064 91.699587 
L 101.336958 90.26599 
L 101.642851 125.21034 
L 101.948744 94.318579 
L 102.56053 94.360425 
L 102.866423 94.758446 
L 103.172316 94.268783 
L 103.478209 92.228675 
L 103.784102 125.914995 
L 104.089995 94.880796 
L 104.395889 95.050672 
L 104.701782 95.033404 
L 105.007675 96.677832 
L 105.313568 97.000548 
L 105.619461 94.32986 
L 105.925354 92.953246 
L 106.231247 92.585069 
L 106.843033 92.279253 
L 108.372499 91.929907 
L 109.596071 91.81422 
L 110.207857 91.818424 
L 110.513751 94.19499 
L 111.125537 96.781209 
L 111.43143 96.889989 
L 111.737323 97.23995 
L 112.043216 94.756404 
L 112.349109 94.282598 
L 112.655002 94.630718 
L 112.960895 97.448674 
L 113.266788 94.792003 
L 113.572682 94.570441 
L 113.878575 92.36551 
L 114.184468 92.269757 
L 114.490361 96.834506 
L 115.40804 96.976829 
L 115.713933 97.046215 
L 116.019826 94.487679 
L 116.32572 94.260291 
L 116.631613 97.075934 
L 116.937506 97.362032 
L 117.549292 97.438529 
L 117.855185 97.790581 
L 118.161078 95.112856 
L 118.466971 94.830124 
L 118.772864 97.383152 
L 119.078757 97.840623 
L 119.384651 97.742045 
L 119.690544 97.850092 
L 119.996437 99.634345 
L 120.608223 95.324656 
L 121.220009 95.116735 
L 122.443582 94.898497 
L 123.973047 94.865094 
L 124.27894 94.847599 
L 124.584833 94.673776 
L 124.890726 94.643205 
L 125.196619 97.560183 
L 125.502513 97.888937 
L 125.808406 97.94125 
L 126.114299 98.115442 
L 126.420192 99.964348 
L 126.726085 97.336456 
L 127.031978 97.050792 
L 127.337871 98.040285 
L 127.643764 100.086601 
L 127.949657 99.988577 
L 128.25555 99.449024 
L 128.561444 96.923171 
L 128.867337 95.352324 
L 129.479123 99.635159 
L 129.785016 98.011008 
L 130.090909 99.508544 
L 130.396802 97.933439 
L 130.702695 97.333476 
L 131.008588 97.136645 
L 131.314481 99.957017 
L 131.926268 100.031983 
L 132.538054 100.040011 
L 132.843947 97.579224 
L 133.14984 97.376378 
L 133.455733 99.995047 
L 133.761626 100.075048 
L 134.067519 99.983867 
L 134.373413 97.501327 
L 134.679306 97.322349 
L 135.902878 97.256522 
L 136.208771 97.21515 
L 136.514664 97.057915 
L 139.573595 97.143984 
L 139.879488 99.832622 
L 140.491275 100.131478 
L 140.797168 100.499418 
L 141.103061 102.216751 
L 141.714847 98.028746 
L 142.326633 102.245329 
L 142.632526 100.803289 
L 142.938419 97.171031 
L 143.244312 95.031223 
L 143.550206 94.701106 
L 143.856099 96.657649 
L 144.161992 97.716869 
L 144.467885 97.767825 
L 144.773778 99.386094 
L 145.079671 100.274839 
L 145.385564 102.294865 
L 145.691457 99.590912 
L 145.99735 97.892356 
L 146.609137 102.296135 
L 147.526816 102.253157 
L 147.832709 102.503354 
L 148.138602 102.458492 
L 148.444495 100.072855 
L 148.750388 99.555174 
L 149.056281 99.618752 
L 149.362175 102.469385 
L 149.668068 102.336232 
L 150.279854 102.803484 
L 150.585747 102.490379 
L 150.89164 100.376163 
L 151.197533 100.235679 
L 151.503426 103.086055 
L 152.726999 103.234675 
L 153.032892 102.414444 
L 153.338785 100.831681 
L 153.950571 100.682106 
L 155.78593 100.54978 
L 156.091823 100.596257 
L 156.397716 100.452932 
L 157.009502 100.487302 
L 157.621288 100.4075 
L 157.927181 102.277351 
L 158.233074 105.330946 
L 158.538968 105.14938 
L 159.150754 105.676246 
L 159.456647 105.117863 
L 159.76254 103.020072 
L 160.068433 102.893804 
L 160.374326 105.873436 
L 160.986112 105.953791 
L 161.292005 105.992102 
L 161.597899 107.900281 
L 161.903792 105.286137 
L 162.209685 105.054137 
L 162.515578 103.120597 
L 162.821471 104.923931 
L 163.127364 102.775026 
L 163.433257 102.41714 
L 163.73915 102.358139 
L 164.045043 105.547088 
L 164.65683 105.708075 
L 164.962723 105.796026 
L 165.268616 105.753416 
L 165.574509 105.006468 
L 165.880402 103.361061 
L 167.715761 103.315713 
L 169.857012 103.585508 
L 170.162905 108.221243 
L 170.468799 108.570838 
L 170.774692 108.65929 
L 171.080585 110.508311 
L 171.386478 110.865495 
L 171.692371 107.991186 
L 171.998264 106.229202 
L 172.61005 110.98669 
L 172.915943 110.976017 
L 173.221836 111.196157 
L 173.52773 111.167749 
L 173.833623 108.848808 
L 174.445409 108.610702 
L 175.057195 113.271768 
L 175.363088 113.44754 
L 175.668981 113.384214 
L 175.974874 111.566915 
L 176.280767 110.797059 
L 176.586661 110.633435 
L 176.892554 113.442225 
L 177.198447 111.337159 
L 177.50434 111.482007 
L 177.810233 113.694632 
L 178.116126 110.990244 
L 178.422019 110.779727 
L 178.727912 113.467316 
L 179.033805 113.991044 
L 179.339698 113.974284 
L 179.645592 114.080962 
L 179.951485 116.05963 
L 180.563271 111.584683 
L 183.622202 111.202979 
L 185.151667 111.287627 
L 185.457561 116.26981 
L 186.069347 116.600393 
L 186.681133 116.825317 
L 186.987026 114.186208 
L 187.292919 113.987129 
L 187.904705 118.836135 
L 188.210598 116.968625 
L 188.516492 118.979791 
L 188.822385 119.324745 
L 189.128278 116.550953 
L 189.434171 116.065533 
L 189.740064 116.369289 
L 190.045957 119.321176 
L 190.35185 119.294179 
L 190.657743 119.132586 
L 190.963636 119.347149 
L 191.269529 119.1939 
L 191.575423 116.568811 
L 191.881316 116.361689 
L 192.187209 116.795568 
L 192.493102 116.874417 
L 192.798995 118.928598 
L 193.104888 119.371963 
L 193.410781 119.545732 
L 194.022567 119.613559 
L 194.32846 121.627067 
L 194.634354 121.801094 
L 194.940247 119.127884 
L 195.24614 118.842831 
L 195.552033 117.044154 
L 196.775605 116.980525 
L 197.081498 121.96927 
L 197.387392 122.226531 
L 197.693285 121.771445 
L 197.999178 121.596913 
L 198.305071 121.59869 
L 198.610964 124.779292 
L 198.916857 124.906336 
L 199.22275 124.764401 
L 199.834536 125.07415 
L 200.140429 122.447528 
L 200.446323 122.398815 
L 201.058109 127.377414 
L 201.364002 127.459626 
L 201.669895 127.311808 
L 202.281681 127.364866 
L 202.587574 124.735763 
L 202.893467 124.609925 
L 203.505254 130.1465 
L 203.811147 129.951694 
L 204.11704 127.861315 
L 204.422933 130.147275 
L 204.728826 127.535062 
L 205.034719 127.166265 
L 205.340612 125.184736 
L 205.646505 130.332595 
L 205.952398 130.453461 
L 206.258291 130.20618 
L 206.564185 130.492043 
L 206.870078 127.778524 
L 207.481864 127.502185 
L 209.011329 127.321752 
L 211.764367 127.635155 
L 212.07026 129.9549 
L 212.376153 130.313482 
L 212.682047 127.76025 
L 212.98794 127.575041 
L 213.293833 127.570986 
L 213.599726 132.87646 
L 213.905619 133.042417 
L 214.517405 133.068946 
L 214.823298 135.534548 
L 215.129191 130.523542 
L 215.435085 130.316721 
L 215.740978 130.556106 
L 216.046871 135.540038 
L 216.658657 135.541852 
L 217.270443 135.856467 
L 217.576336 132.955808 
L 217.882229 132.764318 
L 218.494016 138.314389 
L 219.105802 138.313875 
L 219.411695 143.891421 
L 219.717588 143.898479 
L 220.023481 138.314065 
L 220.329374 135.846313 
L 220.94116 146.677058 
L 222.164733 146.67643 
L 222.470626 141.105628 
L 222.776519 138.60247 
L 224.000091 138.306573 
L 227.059022 138.3408 
L 227.364915 143.897345 
L 227.670809 146.677825 
L 227.976702 141.180799 
L 228.282595 180.170438 
L 228.588488 141.087983 
L 228.894381 146.657477 
L 229.200274 149.444869 
L 229.81206 149.454876 
L 230.117953 152.243035 
L 231.035633 143.895592 
L 231.341526 149.459052 
L 231.953312 155.028469 
L 232.259205 144.044621 
L 232.565098 149.446885 
L 233.176884 149.451438 
L 233.482778 144.071497 
L 233.788671 143.878697 
L 234.094564 149.457516 
L 234.400457 152.241936 
L 234.70635 152.250922 
L 235.012243 155.026906 
L 235.318136 155.028944 
L 235.929922 149.457185 
L 236.235815 149.453799 
L 236.541709 152.244278 
L 236.847602 157.814534 
L 238.071174 157.820937 
L 238.377067 152.243294 
L 238.68296 152.242133 
L 238.988853 157.81408 
L 240.212426 157.817698 
L 240.518319 160.596636 
L 240.824212 155.024229 
L 241.435998 155.032388 
L 241.741891 160.600509 
L 242.965464 160.596313 
L 243.57725 155.020802 
L 247.247967 155.012766 
L 247.859753 160.592812 
L 248.165646 160.599333 
L 248.47154 155.174437 
L 248.777433 155.190631 
L 249.083326 160.59317 
L 249.389219 163.380552 
L 250.001005 163.376361 
L 250.306898 166.161755 
L 250.612791 166.162656 
L 251.224577 160.710456 
L 251.530471 160.683885 
L 251.836364 166.157106 
L 252.142257 168.938591 
L 253.059936 168.939356 
L 253.671722 163.491431 
L 253.977615 166.153683 
L 254.283508 171.724279 
L 254.589402 171.7215 
L 254.895295 168.943101 
L 255.201188 171.72528 
L 255.507081 171.719126 
L 256.118867 166.152392 
L 256.42476 171.724913 
L 257.648333 171.728611 
L 258.260119 166.152822 
L 261.624943 166.152197 
L 261.930836 171.739607 
L 262.236729 174.52083 
L 262.542622 174.521297 
L 262.848515 171.73568 
L 263.154408 171.730914 
L 263.766195 177.303901 
L 264.989767 177.299256 
L 265.29566 174.514156 
L 265.907446 174.511253 
L 266.519233 180.08189 
L 267.742805 180.081692 
L 268.048698 177.297639 
L 268.660484 177.293293 
L 268.966377 182.872266 
L 270.495843 182.869531 
L 270.801736 177.308263 
L 271.413522 182.865613 
L 271.719415 180.077488 
L 272.637095 180.083841 
L 272.942988 177.292715 
L 273.248881 177.294043 
L 273.554774 174.733245 
L 275.084239 174.645757 
L 276.613705 174.51205 
L 277.225491 180.079713 
L 277.531384 174.602856 
L 278.14317 174.644365 
L 278.449063 180.082807 
L 278.754957 182.867762 
L 279.978529 182.942132 
L 280.590315 177.607057 
L 280.896208 177.610835 
L 281.202101 182.993715 
L 281.507995 185.629628 
L 281.813888 185.628612 
L 282.119781 188.413067 
L 282.731567 188.413995 
L 283.03746 182.879328 
L 283.649246 182.837707 
L 283.955139 188.409846 
L 284.261032 191.197559 
L 284.566926 191.198033 
L 284.872819 185.619704 
L 285.178712 188.736428 
L 285.484605 202.33762 
L 285.790498 205.120005 
L 286.096391 196.80815 
L 286.708177 196.761486 
L 287.01407 207.902967 
L 287.319963 213.476026 
L 287.625857 213.477887 
L 288.237643 219.047209 
L 288.543536 219.048175 
L 288.849429 213.476671 
L 289.155322 210.695335 
L 289.461215 210.694288 
L 289.767108 219.048574 
L 290.073001 221.831757 
L 290.378894 221.830511 
L 290.684788 224.614293 
L 290.990681 224.609717 
L 291.296574 227.399819 
L 291.602467 224.618031 
L 291.90836 219.045377 
L 292.214253 219.045165 
L 292.520146 216.261029 
L 292.826039 227.396914 
L 293.131932 230.180026 
L 294.049612 230.183199 
L 294.355505 232.965933 
L 294.661398 232.964481 
L 295.273184 238.537541 
L 296.496757 238.535687 
L 296.80265 232.965376 
L 299.249794 232.968556 
L 299.555688 221.828693 
L 299.861581 227.398739 
L 300.77926 235.747749 
L 301.085153 235.750219 
L 301.391046 238.536113 
L 302.002832 238.532112 
L 302.308725 235.74785 
L 302.920512 235.744974 
L 303.532298 241.315753 
L 303.838191 241.320864 
L 304.144084 244.105327 
L 305.061763 244.092892 
L 305.367656 246.877349 
L 305.67355 244.094713 
L 305.979443 235.744529 
L 306.285336 244.09977 
L 306.591229 246.885856 
L 306.897122 246.88305 
L 307.508908 252.451957 
L 308.120694 252.451065 
L 308.426587 255.231895 
L 309.956053 255.232723 
L 310.261946 258.018577 
L 310.873732 258.022737 
L 311.179625 263.59003 
L 311.485519 263.588441 
L 311.791412 266.372967 
L 313.62677 266.373161 
L 313.932663 269.155506 
L 314.238556 269.151391 
L 314.54445 260.806251 
L 314.850343 266.370623 
L 315.768022 274.723934 
L 316.073915 274.72302 
L 316.379808 277.508007 
L 316.685701 277.508468 
L 316.991594 280.291013 
L 317.297487 277.503341 
L 317.603381 277.506994 
L 317.909274 274.719265 
L 318.215167 283.071821 
L 318.52106 283.072684 
L 318.826953 285.856302 
L 319.132846 285.858153 
L 319.438739 291.423323 
L 319.744632 291.422412 
L 320.050525 294.205491 
L 320.662312 294.208147 
L 320.968205 296.9918 
L 321.579991 291.427933 
L 322.803563 291.429468 
L 323.109456 296.993165 
L 323.721243 296.99824 
L 324.027136 299.781764 
L 324.333029 299.773931 
L 324.638922 296.994094 
L 324.944815 299.771703 
L 325.250708 299.772111 
L 325.556601 296.985339 
L 326.47428 296.984874 
L 326.780174 299.772548 
L 327.086067 299.77046 
L 327.39196 302.557477 
L 327.697853 302.553785 
L 328.003746 305.340546 
L 329.227318 305.339171 
L 329.533212 288.642128 
L 329.839105 294.20641 
L 330.144998 296.992261 
L 330.450891 302.558393 
L 330.756784 302.557505 
L 331.36857 308.125476 
L 332.286249 308.127307 
L 332.592143 310.908145 
L 333.203929 310.911311 
L 333.509822 308.122253 
L 334.427501 316.475147 
L 334.733394 310.906758 
L 335.039287 310.908309 
L 335.34518 313.688382 
L 335.651074 319.256387 
L 335.956967 322.043599 
L 336.26286 322.037683 
L 336.874646 316.473376 
L 338.098218 316.477437 
L 338.404111 313.690291 
L 339.321791 313.687439 
L 339.627684 316.471436 
L 340.23947 316.474663 
L 340.545363 319.260052 
L 341.157149 319.255901 
L 341.463042 324.822668 
L 341.768936 327.607902 
L 343.604294 327.605603 
L 343.910187 330.392808 
L 344.21608 349.86923 
L 344.521974 347.088475 
L 344.827867 349.86949 
L 345.439653 349.870174 
L 345.745546 352.657445 
L 346.051439 352.657155 
L 346.357332 355.440899 
L 347.886798 355.440478 
L 348.192691 358.223547 
L 348.804477 358.225879 
L 349.11037 369.36 
L 349.416263 358.224466 
L 350.945729 358.22738 
L 351.251622 355.441401 
L 351.557515 358.226307 
L 351.863408 355.440475 
L 352.169301 358.228141 
L 353.08698 358.223534 
L 353.392873 361.007072 
L 355.228232 361.009381 
L 355.228232 361.009381 
" clip-path="url(#pba74420553)" style="fill: none; stroke-dasharray: 3.7,1.6; stroke-dashoffset: 0; stroke: #008000"/>
   </g>
   <g id="line2d_14">
    <path d="M 69.218182 69.860326 
L 69.829968 70.054879 
L 70.135861 72.026568 
L 70.441754 72.292257 
L 70.747647 74.502457 
L 71.05354 77.78332 
L 71.359434 78.47278 
L 71.665327 80.356233 
L 71.97122 81.020369 
L 72.277113 78.868048 
L 72.583006 78.516262 
L 73.194792 78.583257 
L 73.806578 78.828207 
L 74.418365 79.133429 
L 75.030151 79.456843 
L 75.336044 80.616444 
L 76.559616 81.079621 
L 76.865509 83.333118 
L 77.171402 86.49457 
L 77.477296 86.966529 
L 77.783189 88.769694 
L 78.089082 89.22987 
L 78.394975 86.545337 
L 78.700868 84.849309 
L 79.006761 86.482574 
L 79.312654 89.536387 
L 79.618547 90.113202 
L 79.92444 91.576114 
L 80.230333 91.968699 
L 80.536227 89.161181 
L 80.84212 87.451191 
L 81.148013 87.299561 
L 81.453906 92.182261 
L 82.065692 92.507808 
L 82.371585 92.850287 
L 82.677478 92.160781 
L 82.983371 89.893418 
L 83.289265 89.605917 
L 83.595158 92.982726 
L 83.901051 94.484492 
L 84.512837 94.955036 
L 84.81873 81.028818 
L 85.124623 81.689131 
L 85.430516 81.017104 
L 85.736409 81.111707 
L 86.348196 86.062761 
L 86.654089 86.353127 
L 86.959982 89.363729 
L 87.265875 88.768571 
L 87.571768 89.200522 
L 87.877661 91.841 
L 88.489447 92.347743 
L 88.79534 94.076351 
L 89.101233 94.730448 
L 89.407127 94.288542 
L 89.71302 94.387302 
L 90.018913 95.272131 
L 90.324806 96.983963 
L 90.630699 97.037274 
L 90.936592 97.213662 
L 91.242485 97.810955 
L 91.548378 97.022882 
L 92.160164 97.227631 
L 92.771951 97.575184 
L 93.077844 131.656692 
L 93.383737 97.669205 
L 93.995523 98.053981 
L 94.607309 98.430065 
L 94.913202 99.850369 
L 95.524989 100.002748 
L 95.830882 134.21195 
L 96.136775 100.331262 
L 96.442668 100.429102 
L 96.748561 136.671086 
L 97.054454 105.072672 
L 97.66624 105.530046 
L 97.972133 100.228452 
L 98.58392 100.582912 
L 98.889813 98.375419 
L 99.195706 98.125573 
L 99.807492 102.53211 
L 100.419278 102.624833 
L 100.725171 103.008188 
L 101.031064 100.861784 
L 101.336958 100.418365 
L 101.642851 100.34102 
L 101.948744 103.571819 
L 102.254637 139.478898 
L 102.56053 103.928016 
L 102.866423 105.47382 
L 103.172316 106.014561 
L 103.478209 102.843931 
L 103.784102 101.465181 
L 104.089995 105.347418 
L 104.395889 106.075076 
L 104.701782 106.152019 
L 105.007675 106.0577 
L 105.313568 108.435873 
L 105.619461 103.96773 
L 105.925354 103.555937 
L 106.231247 103.446959 
L 106.53714 102.998469 
L 106.843033 102.80157 
L 107.148926 101.593703 
L 108.372499 101.213763 
L 110.207857 100.965292 
L 110.819644 106.497004 
L 111.125537 106.373647 
L 111.43143 108.033264 
L 111.737323 108.194443 
L 112.349109 103.555921 
L 112.655002 103.369798 
L 112.960895 103.542116 
L 113.266788 103.279261 
L 113.572682 100.876095 
L 113.878575 100.765239 
L 114.184468 105.610607 
L 114.490361 105.841628 
L 114.796254 105.262921 
L 115.40804 106.07655 
L 115.713933 103.089836 
L 116.019826 102.729548 
L 116.32572 105.516761 
L 116.631613 106.174238 
L 117.243399 106.054877 
L 117.549292 108.00806 
L 118.161078 103.550496 
L 118.466971 103.322921 
L 118.772864 108.285686 
L 119.384651 108.111002 
L 119.690544 108.158192 
L 119.996437 108.379938 
L 120.30233 104.235969 
L 120.914116 103.596601 
L 121.525902 103.511315 
L 122.137688 103.194281 
L 124.584833 102.733421 
L 124.890726 101.277764 
L 125.196619 101.223221 
L 125.502513 106.160239 
L 126.114299 106.305482 
L 126.420192 108.152798 
L 126.726085 105.386673 
L 127.031978 103.649013 
L 127.337871 105.366163 
L 127.643764 108.32259 
L 128.25555 103.242229 
L 128.561444 102.91973 
L 128.867337 105.193368 
L 129.17323 106.111089 
L 129.479123 105.886697 
L 129.785016 105.835537 
L 130.090909 105.934139 
L 130.396802 103.668004 
L 130.702695 103.436833 
L 131.008588 106.157091 
L 131.314481 106.29566 
L 131.620375 106.236877 
L 132.232161 106.486509 
L 132.538054 103.940901 
L 132.843947 103.515896 
L 133.455733 107.971224 
L 134.067519 104.097768 
L 134.373413 103.500665 
L 135.596985 103.293878 
L 136.208771 103.201277 
L 136.514664 103.022202 
L 137.432344 103.061521 
L 138.350023 102.992478 
L 138.655916 102.904501 
L 139.267702 103.000367 
L 139.879488 102.993911 
L 140.185381 106.176521 
L 140.491275 105.923045 
L 140.797168 106.123997 
L 141.103061 107.996986 
L 141.408954 108.248815 
L 141.714847 105.415866 
L 142.02074 103.888769 
L 142.632526 108.382014 
L 142.938419 107.957445 
L 143.244312 108.115347 
L 143.550206 108.864591 
L 143.856099 106.162086 
L 144.161992 105.876383 
L 144.467885 108.209286 
L 144.773778 108.999378 
L 145.079671 108.833221 
L 145.385564 110.652504 
L 145.691457 109.058301 
L 145.99735 108.728194 
L 146.303243 108.067308 
L 146.609137 106.489659 
L 146.91503 110.90529 
L 147.220923 110.966499 
L 147.526816 110.637758 
L 147.832709 110.982195 
L 148.138602 111.055126 
L 148.444495 108.288394 
L 148.750388 106.79799 
L 149.056281 110.88126 
L 149.362175 111.356129 
L 149.668068 111.470183 
L 149.973961 111.287784 
L 150.279854 108.588029 
L 150.585747 111.109063 
L 150.89164 108.379808 
L 151.197533 106.738584 
L 151.503426 108.50123 
L 151.809319 111.3801 
L 152.115212 111.421968 
L 152.421106 111.636155 
L 152.726999 110.972782 
L 153.032892 111.149098 
L 153.338785 108.661351 
L 153.644678 108.260725 
L 153.950571 108.488771 
L 154.256464 111.542132 
L 154.562357 111.550675 
L 154.86825 113.337013 
L 155.174143 113.477116 
L 155.480037 113.430584 
L 155.78593 110.982534 
L 156.091823 110.8094 
L 156.397716 114.297187 
L 157.009502 114.205075 
L 157.315395 114.392285 
L 157.621288 113.613076 
L 157.927181 111.731771 
L 158.538968 111.57239 
L 160.374326 111.249996 
L 160.986112 111.350918 
L 161.292005 111.168812 
L 161.597899 111.283748 
L 162.515578 111.104262 
L 162.821471 114.457673 
L 163.127364 116.429828 
L 163.433257 114.526926 
L 163.73915 116.617624 
L 164.045043 116.922946 
L 164.350937 114.088385 
L 164.65683 113.721812 
L 164.962723 114.468897 
L 165.268616 117.104162 
L 165.880402 116.999514 
L 166.186295 117.149913 
L 166.492188 116.931498 
L 166.798081 114.598049 
L 167.103974 113.856431 
L 167.409868 114.117286 
L 167.715761 113.539837 
L 168.021654 111.595378 
L 168.327547 111.507526 
L 168.63344 116.092337 
L 169.551119 116.503122 
L 169.857012 116.875258 
L 170.162905 114.270804 
L 170.468799 114.024249 
L 172.304157 113.832922 
L 174.751302 114.004702 
L 175.057195 114.467938 
L 175.363088 119.181605 
L 175.974874 119.411233 
L 176.280767 119.636294 
L 176.586661 119.500872 
L 176.892554 116.794572 
L 177.50434 121.657079 
L 177.810233 119.903332 
L 178.116126 121.833094 
L 178.422019 121.711731 
L 178.727912 119.601591 
L 179.033805 119.160856 
L 179.339698 117.314737 
L 179.645592 121.959321 
L 180.257378 122.323671 
L 180.869164 122.467421 
L 181.175057 119.794671 
L 181.48095 119.570164 
L 182.092736 119.835698 
L 182.39863 121.972129 
L 182.704523 119.276824 
L 183.010416 119.015123 
L 183.316309 119.864769 
L 183.622202 122.338013 
L 183.928095 122.260598 
L 184.539881 122.544489 
L 184.845774 122.079462 
L 185.151667 119.924142 
L 188.822385 119.283994 
L 190.045957 119.240881 
L 190.35185 122.528556 
L 190.657743 124.559784 
L 191.575423 125.133497 
L 191.881316 122.445464 
L 192.187209 122.047763 
L 192.493102 122.134025 
L 192.798995 125.183332 
L 193.104888 125.053002 
L 193.716674 125.254848 
L 194.022567 127.232808 
L 194.32846 122.671779 
L 194.634354 122.407188 
L 195.24614 127.232304 
L 195.552033 127.228198 
L 195.857926 125.362257 
L 196.163819 125.440105 
L 196.469712 125.020365 
L 196.775605 122.78038 
L 197.081498 124.685579 
L 197.387392 124.871967 
L 197.693285 124.890957 
L 197.999178 125.307773 
L 198.305071 127.23241 
L 199.22275 127.27561 
L 199.528643 127.573588 
L 199.834536 125.227239 
L 200.140429 124.836282 
L 200.752216 124.568665 
L 201.364002 124.50264 
L 201.669895 122.818518 
L 201.975788 127.236179 
L 202.281681 127.245307 
L 202.893467 122.849094 
L 203.19936 124.805205 
L 203.505254 125.465026 
L 203.811147 125.340362 
L 204.422933 124.841121 
L 204.728826 124.773183 
L 205.034719 122.615765 
L 205.340612 122.531189 
L 205.646505 124.854912 
L 205.952398 125.295803 
L 206.258291 125.165317 
L 206.564185 125.164139 
L 206.870078 125.279843 
L 207.175971 124.748258 
L 207.481864 122.867072 
L 207.787757 122.828011 
L 208.09365 127.257132 
L 209.011329 127.324146 
L 209.317222 127.630215 
L 209.623116 125.211367 
L 209.929009 124.990222 
L 210.234902 125.296854 
L 210.540795 127.767084 
L 210.846688 127.644747 
L 211.152581 127.716786 
L 211.458474 127.37282 
L 211.764367 127.662827 
L 212.07026 125.272001 
L 212.682047 125.122447 
L 215.129191 124.771132 
L 216.046871 124.790275 
L 216.96455 124.897084 
L 217.270443 125.361846 
L 217.576336 127.243431 
L 217.882229 125.211423 
L 218.188122 124.8842 
L 218.494016 124.885451 
L 218.799909 127.773595 
L 219.105802 127.928063 
L 219.411695 127.679553 
L 219.717588 127.797075 
L 220.023481 128.100627 
L 220.329374 125.5659 
L 220.635267 125.501769 
L 220.94116 125.56549 
L 221.247053 130.026543 
L 221.552947 130.031986 
L 221.85884 128.236373 
L 222.164733 130.215324 
L 222.470626 127.78966 
L 222.776519 127.599054 
L 223.082412 127.733041 
L 223.388305 130.548905 
L 223.694198 130.757406 
L 224.000091 130.646141 
L 224.305984 130.858335 
L 224.611878 128.302997 
L 224.917771 128.164027 
L 225.223664 128.218887 
L 225.529557 132.84991 
L 226.447236 132.810321 
L 226.753129 133.076535 
L 227.059022 130.49059 
L 227.364915 130.263971 
L 229.81206 130.120226 
L 231.341526 130.261172 
L 231.647419 130.271949 
L 231.953312 130.717031 
L 232.259205 132.816287 
L 232.565098 130.468589 
L 232.870991 130.114054 
L 233.176884 130.069964 
L 233.482778 133.259469 
L 234.094564 133.493477 
L 234.70635 133.638985 
L 235.012243 132.827726 
L 235.318136 130.90435 
L 235.624029 130.862924 
L 235.929922 135.621534 
L 236.541709 135.775888 
L 236.847602 135.991412 
L 237.153495 133.478306 
L 237.459388 133.221403 
L 237.765281 133.110534 
L 238.071174 136.225419 
L 238.377067 136.351603 
L 238.68296 136.225389 
L 239.294746 141.436571 
L 239.906533 136.088951 
L 240.212426 135.894528 
L 240.518319 141.59371 
L 240.824212 143.935641 
L 241.130105 143.944031 
L 241.435998 146.724961 
L 241.741891 141.313142 
L 242.047784 138.91413 
L 242.659571 138.508564 
L 243.271357 138.379726 
L 243.57725 136.40517 
L 244.189036 136.358082 
L 244.494929 138.383106 
L 245.412608 138.510385 
L 246.330288 138.546524 
L 246.636181 143.944664 
L 246.942074 144.246412 
L 247.55386 139.096012 
L 247.859753 146.71943 
L 248.47154 146.897427 
L 248.777433 147.05744 
L 249.083326 149.501422 
L 249.389219 144.533529 
L 249.695112 143.962183 
L 250.001005 143.946666 
L 250.306898 149.511101 
L 250.612791 149.743848 
L 250.918684 149.809235 
L 251.224577 146.69003 
L 251.530471 147.020317 
L 251.836364 149.480213 
L 252.142257 149.485641 
L 252.44815 144.57294 
L 252.754043 144.299816 
L 253.365829 149.773665 
L 253.671722 149.801837 
L 253.977615 152.287281 
L 254.283508 152.283081 
L 254.589402 152.469899 
L 255.201188 147.24242 
L 255.812974 152.590247 
L 256.118867 152.646075 
L 256.42476 155.077447 
L 256.730653 155.127274 
L 257.036546 155.309426 
L 257.648333 150.08102 
L 257.954226 152.302092 
L 258.260119 155.360435 
L 258.871905 155.204677 
L 259.177798 155.259063 
L 259.483691 157.855998 
L 259.789584 152.664567 
L 260.40137 152.308703 
L 261.013157 157.860706 
L 261.930836 157.863816 
L 262.236729 155.187821 
L 262.848515 155.082383 
L 263.154408 152.83073 
L 263.460302 152.844409 
L 263.766195 155.085981 
L 264.072088 155.084062 
L 264.377981 152.845113 
L 265.29566 152.847057 
L 265.601553 152.880511 
L 265.907446 155.089955 
L 266.519233 155.069873 
L 266.825126 155.430944 
L 267.131019 157.852321 
L 267.436912 155.076418 
L 267.742805 155.073614 
L 268.354591 160.635099 
L 268.966377 160.637969 
L 269.578164 160.89875 
L 269.884057 158.139575 
L 270.18995 157.995331 
L 270.495843 163.406431 
L 271.413522 163.431749 
L 271.719415 163.541136 
L 272.025308 163.415312 
L 272.331201 160.775368 
L 272.637095 160.686262 
L 273.248881 166.196305 
L 274.16656 166.225615 
L 274.472453 168.979065 
L 274.778346 163.575639 
L 275.084239 163.420023 
L 275.390132 163.418679 
L 275.696026 168.978208 
L 276.919598 168.976287 
L 277.225491 166.288526 
L 277.837277 166.20134 
L 278.14317 166.203132 
L 278.449063 163.855271 
L 280.896208 163.764254 
L 281.813888 171.766182 
L 282.119781 166.539499 
L 282.425674 166.458165 
L 283.03746 171.851711 
L 283.343353 171.877489 
L 283.649246 174.55399 
L 284.261032 174.553977 
L 284.566926 171.773152 
L 285.178712 171.776232 
L 285.484605 174.554448 
L 285.790498 174.730534 
L 286.402284 174.745323 
L 286.708177 177.33949 
L 287.01407 177.33846 
L 287.319963 174.563273 
L 287.93175 174.560405 
L 288.543536 180.116881 
L 289.461215 180.123771 
L 290.073001 174.94874 
L 290.378894 174.879156 
L 290.990681 180.128212 
L 291.296574 180.131332 
L 291.602467 177.642431 
L 291.90836 180.128961 
L 292.214253 180.129387 
L 292.520146 177.346796 
L 292.826039 177.346396 
L 293.131932 175.035547 
L 294.967291 175.021652 
L 295.88497 175.031447 
L 296.190863 171.993238 
L 296.80265 177.346034 
L 297.108543 174.749931 
L 297.720329 174.932729 
L 298.026222 180.128711 
L 298.332115 180.339602 
L 298.638008 182.913068 
L 299.555688 182.958738 
L 300.167474 177.804457 
L 300.473367 177.798899 
L 300.77926 182.91158 
L 301.085153 185.676016 
L 302.308725 185.681078 
L 302.920512 180.566053 
L 303.226405 185.67736 
L 303.532298 188.464959 
L 303.838191 188.469556 
L 304.144084 171.860276 
L 304.449977 174.589138 
L 304.75587 185.676172 
L 305.061763 191.241772 
L 305.367656 185.689331 
L 305.979443 185.691783 
L 306.285336 194.020914 
L 307.508908 205.155035 
L 307.814801 199.602421 
L 308.120694 199.604773 
L 308.426587 205.159126 
L 308.732481 207.938342 
L 309.038374 207.940523 
L 309.344267 210.720731 
L 309.65016 210.723006 
L 309.956053 213.508137 
L 310.261946 210.725714 
L 310.567839 205.162563 
L 310.873732 202.489146 
L 311.179625 213.508584 
L 311.485519 216.293294 
L 312.403198 216.291438 
L 313.014984 221.85257 
L 313.932663 221.861322 
L 314.238556 224.645547 
L 314.54445 224.645447 
L 314.850343 221.858933 
L 315.156236 221.858488 
L 315.462129 219.083373 
L 315.768022 219.083321 
L 316.073915 221.868065 
L 316.685701 221.86752 
L 316.991594 219.084287 
L 318.215167 219.064523 
L 318.52106 210.728679 
L 318.826953 216.302173 
L 319.132846 216.299951 
L 319.438739 219.087222 
L 319.744632 219.082388 
L 320.050525 221.867531 
L 320.662312 221.867501 
L 320.968205 219.081801 
L 321.274098 221.8683 
L 321.885884 221.873759 
L 322.191777 224.655962 
L 322.803563 224.658088 
L 323.109456 227.440374 
L 324.027136 227.427397 
L 324.333029 221.884622 
L 324.638922 227.430275 
L 324.944815 227.4333 
L 325.556601 232.997103 
L 326.168387 232.996218 
L 326.47428 235.780485 
L 328.003746 235.782745 
L 328.309639 238.560008 
L 328.615532 238.561455 
L 328.921425 241.349285 
L 329.227318 241.341527 
L 329.533212 244.125807 
L 329.839105 244.128494 
L 330.144998 246.907174 
L 330.450891 246.914526 
L 330.756784 244.127643 
L 331.062677 246.904009 
L 331.674463 246.907182 
L 331.980356 249.688196 
L 332.592143 249.674101 
L 332.898036 252.456923 
L 333.203929 252.454583 
L 333.509822 246.908683 
L 333.815715 252.477935 
L 334.427501 258.045899 
L 335.039287 258.042157 
L 335.34518 260.82972 
L 335.651074 260.830092 
L 335.956967 263.612474 
L 336.26286 260.833286 
L 336.568753 260.832774 
L 336.874646 263.611002 
L 337.180539 263.61055 
L 338.404111 274.738742 
L 339.015898 274.736871 
L 339.321791 277.523836 
L 339.627684 277.525673 
L 339.933577 274.739834 
L 340.851256 274.74831 
L 341.463042 280.309436 
L 341.768936 280.306213 
L 342.074829 283.094569 
L 344.827867 283.086295 
L 345.13376 285.867752 
L 345.745546 285.867917 
L 346.051439 288.647615 
L 346.969118 288.63322 
L 347.275011 291.418525 
L 347.886798 291.418312 
L 348.192691 277.517438 
L 348.498584 283.091413 
L 349.416263 291.44529 
L 349.722156 291.433905 
L 350.028049 294.220359 
L 350.639836 294.21947 
L 350.945729 297.003201 
L 352.475194 297.001825 
L 352.781087 299.786483 
L 353.08698 296.999532 
L 353.392873 297.005932 
L 353.698767 302.573929 
L 354.00466 302.569335 
L 354.310553 305.352616 
L 354.616446 302.572979 
L 356.145911 302.570696 
L 356.451804 299.788794 
L 356.757698 299.791101 
L 357.369484 305.354398 
L 357.98127 305.355782 
L 358.287163 308.140704 
L 358.593056 308.138618 
L 359.204842 313.707124 
L 360.734308 313.704322 
L 361.040201 316.487136 
L 361.346094 347.096464 
L 361.651987 316.484849 
L 361.95788 316.47852 
L 362.263773 319.262031 
L 362.87556 338.749773 
L 363.181453 338.745641 
L 363.487346 341.530307 
L 363.793239 341.528452 
L 364.099132 344.316868 
L 364.405025 344.315521 
L 364.710918 347.096217 
L 365.016811 347.09551 
L 365.322704 349.876994 
L 366.240384 349.885 
L 366.240384 349.885 
" clip-path="url(#pba74420553)" style="fill: none; stroke-dasharray: 3.7,1.6; stroke-dashoffset: 0; stroke: #ff0000"/>
   </g>
   <g id="line2d_15">
    <path d="M 69.218182 69.037 
L 69.829968 69.323953 
L 70.135861 69.829025 
L 70.441754 70.116134 
L 70.747647 72.613812 
L 71.05354 77.205518 
L 71.665327 78.240719 
L 71.97122 80.33181 
L 72.277113 77.842403 
L 72.583006 77.477479 
L 72.888899 76.267308 
L 73.194792 76.351637 
L 73.500685 77.585552 
L 74.418365 77.869049 
L 75.641937 78.385562 
L 76.865509 78.81364 
L 77.171402 83.697487 
L 77.477296 85.892945 
L 78.089082 86.745032 
L 78.394975 87.142128 
L 78.700868 83.950361 
L 79.006761 83.595904 
L 79.618547 89.347495 
L 79.92444 89.372225 
L 80.230333 89.599211 
L 80.536227 89.686502 
L 80.84212 86.64029 
L 81.148013 86.294306 
L 81.453906 89.707434 
L 81.759799 91.639972 
L 82.371585 91.678604 
L 82.677478 92.215454 
L 82.983371 89.076859 
L 83.289265 87.486304 
L 83.595158 91.703517 
L 83.901051 92.246812 
L 84.206944 92.426885 
L 84.81873 92.471168 
L 85.124623 80.167655 
L 85.430516 79.986371 
L 85.736409 78.347499 
L 86.042302 78.167095 
L 86.654089 83.068747 
L 86.959982 83.137448 
L 87.265875 83.743805 
L 87.571768 83.736081 
L 87.877661 83.867331 
L 88.489447 88.347491 
L 88.79534 88.470543 
L 89.101233 89.06326 
L 89.407127 91.688221 
L 89.71302 89.23691 
L 90.018913 89.566733 
L 90.324806 91.966164 
L 90.936592 92.074465 
L 91.242485 94.008082 
L 91.548378 91.759871 
L 91.854271 91.752018 
L 92.771951 92.218761 
L 93.077844 92.195057 
L 93.383737 92.331258 
L 93.68963 93.936158 
L 94.301416 94.146167 
L 94.913202 94.455802 
L 95.219095 141.994586 
L 95.524989 94.544206 
L 96.136775 94.939867 
L 96.442668 95.044466 
L 96.748561 99.706099 
L 97.360347 100.108436 
L 97.66624 95.120035 
L 97.972133 96.978545 
L 98.278026 96.799738 
L 98.58392 94.055864 
L 98.889813 93.941777 
L 99.195706 95.159635 
L 99.501599 96.972875 
L 100.113385 97.364666 
L 100.419278 97.713213 
L 100.725171 94.963047 
L 101.031064 94.846976 
L 101.642851 99.492201 
L 101.948744 99.933938 
L 102.254637 99.905503 
L 102.56053 100.482917 
L 102.866423 97.33324 
L 103.172316 97.20302 
L 103.478209 100.018903 
L 103.784102 100.527479 
L 104.089995 100.585686 
L 104.395889 102.275762 
L 104.701782 105.093857 
L 105.007675 144.98548 
L 105.313568 99.974543 
L 105.619461 99.498744 
L 105.925354 97.65143 
L 107.148926 96.984826 
L 109.596071 96.709422 
L 109.901964 96.709329 
L 110.207857 102.272 
L 110.513751 102.271662 
L 110.819644 102.461893 
L 111.125537 105.468367 
L 111.43143 100.63902 
L 112.043216 98.051906 
L 112.349109 103.167097 
L 112.655002 102.681723 
L 112.960895 105.173573 
L 113.572682 100.996197 
L 113.878575 100.899637 
L 114.184468 105.843544 
L 114.490361 106.054129 
L 114.796254 105.751834 
L 115.102147 106.270716 
L 115.40804 108.022626 
L 115.713933 103.37916 
L 116.019826 103.142957 
L 116.32572 106.230452 
L 116.631613 108.130261 
L 116.937506 106.344195 
L 117.243399 107.99634 
L 117.549292 108.88867 
L 117.855185 105.746551 
L 118.161078 103.822866 
L 118.466971 105.599012 
L 118.772864 108.959756 
L 119.690544 108.979864 
L 119.996437 108.46121 
L 120.30233 105.865636 
L 120.608223 105.616298 
L 120.914116 104.241679 
L 122.443582 103.772021 
L 123.973047 103.610958 
L 124.27894 103.541741 
L 124.584833 103.300942 
L 124.890726 103.239095 
L 125.196619 108.267328 
L 125.502513 108.557283 
L 126.114299 108.670345 
L 126.420192 109.108201 
L 126.726085 106.034815 
L 127.031978 105.739731 
L 127.643764 110.647702 
L 127.949657 108.355235 
L 128.25555 104.012406 
L 128.561444 103.682681 
L 129.17323 108.568893 
L 129.785016 108.177688 
L 130.090909 108.51217 
L 130.396802 106.165412 
L 130.702695 105.430728 
L 131.008588 103.830048 
L 131.314481 108.608252 
L 131.620375 108.560747 
L 132.232161 108.768066 
L 132.538054 105.685251 
L 132.843947 103.915095 
L 133.455733 108.703144 
L 133.761626 108.098794 
L 134.373413 103.769484 
L 135.596985 103.543535 
L 135.902878 103.462754 
L 136.208771 103.259203 
L 136.820557 103.303563 
L 139.267702 103.157784 
L 139.573595 107.897959 
L 139.879488 106.344788 
L 140.185381 107.985191 
L 140.491275 108.595938 
L 140.797168 108.919641 
L 141.103061 105.886157 
L 141.408954 105.530536 
L 141.714847 107.990384 
L 142.02074 108.919802 
L 142.326633 108.341322 
L 142.632526 108.357153 
L 142.938419 110.662744 
L 143.244312 106.156048 
L 143.550206 105.895403 
L 144.161992 110.763708 
L 144.467885 108.999321 
L 144.773778 110.96084 
L 145.079671 110.800388 
L 145.385564 108.811064 
L 145.691457 108.118764 
L 145.99735 106.481951 
L 146.303243 111.124983 
L 146.609137 111.200909 
L 146.91503 110.894708 
L 147.220923 111.29937 
L 147.526816 111.271582 
L 147.832709 108.335654 
L 148.138602 106.648272 
L 148.444495 110.990386 
L 148.750388 111.41926 
L 149.362175 111.416255 
L 149.668068 108.632832 
L 149.973961 111.059093 
L 150.279854 108.146541 
L 150.585747 108.069792 
L 150.89164 111.318532 
L 151.197533 111.357757 
L 151.503426 111.625977 
L 151.809319 111.410575 
L 152.421106 111.596884 
L 152.726999 108.836892 
L 153.032892 108.475282 
L 153.644678 113.436532 
L 153.950571 111.589502 
L 154.256464 113.501016 
L 154.562357 113.487478 
L 154.86825 111.618919 
L 155.174143 110.970495 
L 155.480037 110.779506 
L 155.78593 113.888291 
L 156.091823 114.062829 
L 156.397716 114.079303 
L 156.703609 114.228124 
L 157.009502 116.171579 
L 157.315395 111.726548 
L 157.927181 111.438855 
L 158.844861 111.115326 
L 159.150754 110.965205 
L 161.292005 110.870435 
L 161.597899 109.34112 
L 162.209685 109.245973 
L 162.515578 113.935071 
L 162.821471 114.307252 
L 163.127364 113.964963 
L 163.433257 111.858216 
L 163.73915 111.785751 
L 164.045043 116.833174 
L 164.350937 116.77575 
L 164.962723 116.91441 
L 165.268616 119.024175 
L 165.574509 114.301523 
L 165.880402 113.688995 
L 166.186295 113.990116 
L 166.492188 111.626696 
L 166.798081 111.279878 
L 167.103974 111.196074 
L 167.409868 116.156067 
L 168.021654 116.222894 
L 168.327547 116.3987 
L 168.63344 116.820076 
L 168.939333 113.958829 
L 169.551119 113.742794 
L 169.857012 113.716369 
L 170.162905 113.569963 
L 170.468799 111.876158 
L 170.774692 111.824157 
L 171.080585 113.515242 
L 173.833623 113.734927 
L 174.445409 119.180228 
L 174.751302 119.195443 
L 175.363088 119.735128 
L 175.668981 117.013606 
L 175.974874 116.586039 
L 176.280767 116.409007 
L 176.586661 119.725281 
L 176.892554 121.736813 
L 177.810233 121.831849 
L 178.116126 117.280982 
L 178.422019 117.118118 
L 179.033805 122.123482 
L 179.339698 121.920688 
L 179.645592 122.417202 
L 179.951485 122.296529 
L 180.257378 119.912302 
L 180.563271 119.420563 
L 180.869164 119.195075 
L 181.175057 119.748569 
L 181.48095 121.719418 
L 182.092736 117.277591 
L 182.704523 122.390214 
L 183.010416 122.329736 
L 183.622202 122.531146 
L 183.928095 122.40603 
L 184.233988 119.822904 
L 185.151667 119.624071 
L 185.457561 119.347855 
L 186.069347 119.187391 
L 187.598812 119.027629 
L 187.904705 119.820746 
L 188.516492 124.640989 
L 189.128278 124.830234 
L 189.434171 124.579204 
L 190.045957 120.07895 
L 190.35185 124.711754 
L 190.657743 125.102753 
L 190.963636 124.79467 
L 191.575423 125.202283 
L 191.881316 122.636882 
L 192.493102 122.039562 
L 192.798995 125.069363 
L 193.716674 125.151654 
L 194.022567 125.274697 
L 194.32846 122.496708 
L 194.634354 124.537774 
L 194.940247 122.601262 
L 195.24614 124.542893 
L 195.552033 124.99232 
L 195.857926 125.165159 
L 196.775605 125.274832 
L 197.081498 127.315475 
L 197.693285 122.628024 
L 198.610964 122.352512 
L 199.22275 122.252493 
L 199.528643 124.699781 
L 199.834536 122.610388 
L 200.446323 122.24068 
L 200.752216 124.611956 
L 201.058109 122.775727 
L 201.364002 122.763965 
L 201.669895 122.537786 
L 201.975788 122.650166 
L 202.281681 121.937731 
L 202.587574 120.146185 
L 203.19936 124.534588 
L 203.505254 122.770983 
L 203.811147 122.734752 
L 204.11704 124.537685 
L 204.422933 122.236994 
L 204.728826 122.06858 
L 205.034719 124.536886 
L 205.340612 124.97885 
L 205.646505 124.847321 
L 205.952398 124.922642 
L 206.258291 125.234481 
L 206.564185 122.641717 
L 206.870078 122.556437 
L 207.175971 125.074596 
L 207.481864 125.302748 
L 207.787757 125.14427 
L 208.09365 125.187348 
L 208.399543 125.017979 
L 208.705436 122.862392 
L 209.317222 122.604856 
L 210.540795 122.317008 
L 211.458474 122.198768 
L 213.293833 122.236983 
L 213.905619 122.581084 
L 214.211512 122.114865 
L 214.517405 121.863259 
L 214.823298 121.821445 
L 215.129191 124.655126 
L 215.740978 124.552528 
L 216.046871 124.649449 
L 216.352764 125.046979 
L 216.658657 122.622787 
L 216.96455 122.527608 
L 217.270443 122.786998 
L 217.576336 125.291761 
L 217.882229 125.130161 
L 218.799909 125.335134 
L 219.105802 124.553494 
L 219.411695 122.782809 
L 220.023481 127.289678 
L 220.329374 125.484318 
L 220.635267 127.316091 
L 220.94116 127.328224 
L 221.247053 125.398205 
L 221.552947 124.965109 
L 221.85884 124.851583 
L 222.164733 127.556118 
L 222.470626 127.787625 
L 223.082412 127.678239 
L 223.388305 127.905392 
L 223.694198 125.511439 
L 224.305984 125.293964 
L 226.141343 125.118309 
L 228.894381 125.265383 
L 229.200274 125.456997 
L 229.81206 124.948981 
L 230.117953 124.934432 
L 230.423847 127.702625 
L 231.035633 128.129824 
L 231.341526 128.150678 
L 231.647419 127.492422 
L 231.953312 125.560046 
L 232.259205 127.586873 
L 232.565098 130.415359 
L 232.870991 130.683149 
L 233.176884 127.968949 
L 233.482778 127.822929 
L 234.094564 132.884184 
L 234.400457 130.806505 
L 234.70635 130.869615 
L 235.012243 135.669787 
L 235.318136 133.636296 
L 235.624029 130.761576 
L 235.929922 130.546859 
L 236.235815 135.662453 
L 236.541709 136.253944 
L 236.847602 136.161233 
L 237.153495 138.449389 
L 237.459388 138.621221 
L 238.071174 133.421842 
L 238.68296 132.910473 
L 238.988853 131.039899 
L 239.294746 130.877242 
L 239.906533 130.812141 
L 240.518319 130.95011 
L 242.047784 130.990485 
L 242.353677 135.829137 
L 242.659571 136.244177 
L 242.965464 133.534236 
L 243.57725 132.933483 
L 243.883143 138.486881 
L 244.189036 138.939652 
L 244.494929 141.225659 
L 244.800822 141.294171 
L 245.412608 136.157002 
L 245.718502 135.963188 
L 246.024395 141.250829 
L 246.330288 141.706419 
L 246.636181 141.785857 
L 246.942074 141.198615 
L 247.247967 141.645609 
L 247.55386 141.75321 
L 247.859753 143.998738 
L 248.165646 138.826264 
L 248.47154 138.435458 
L 249.083326 144.003666 
L 249.389219 141.867899 
L 249.695112 144.006557 
L 250.306898 144.221782 
L 250.918684 139.197277 
L 251.224577 144.011875 
L 251.530471 144.411781 
L 251.836364 144.461016 
L 252.142257 146.796891 
L 252.754043 146.797444 
L 253.059936 141.94761 
L 253.365829 141.763492 
L 253.671722 146.791884 
L 253.977615 147.007705 
L 254.283508 146.794819 
L 254.895295 146.911224 
L 255.201188 146.847794 
L 255.507081 144.041871 
L 255.812974 144.01402 
L 256.118867 146.797195 
L 256.42476 147.128469 
L 256.730653 147.066596 
L 257.342439 147.192906 
L 257.648333 147.07824 
L 257.954226 144.450264 
L 258.566012 144.225369 
L 261.624943 143.981263 
L 261.930836 144.501401 
L 262.236729 146.81746 
L 262.542622 144.636808 
L 262.848515 144.061624 
L 263.154408 144.03556 
L 263.766195 149.571996 
L 264.377981 149.586203 
L 264.683874 149.802151 
L 264.989767 149.572744 
L 265.29566 146.95559 
L 265.601553 146.86274 
L 266.213339 152.335393 
L 266.519233 150.014779 
L 266.825126 152.34449 
L 267.436912 152.345032 
L 267.742805 149.557196 
L 268.048698 149.8525 
L 268.354591 152.638813 
L 268.660484 152.702881 
L 268.966377 152.64746 
L 269.27227 155.119856 
L 269.578164 155.159463 
L 269.884057 152.338878 
L 270.18995 152.337372 
L 270.495843 150.053068 
L 270.801736 155.441456 
L 271.107629 155.271707 
L 271.413522 155.256977 
L 271.719415 155.412045 
L 272.025308 155.12017 
L 272.331201 152.644085 
L 273.248881 152.425807 
L 276.307812 152.302406 
L 276.919598 157.917842 
L 277.531384 152.87918 
L 278.14317 158.125967 
L 278.754957 158.153723 
L 279.06085 158.203333 
L 279.366743 160.703986 
L 279.672636 155.502962 
L 280.284422 155.38197 
L 280.590315 160.71216 
L 281.813888 160.716251 
L 282.119781 158.077869 
L 282.731567 157.929709 
L 283.03746 163.495112 
L 284.261032 163.489006 
L 284.566926 160.823648 
L 284.872819 160.707083 
L 285.178712 158.195887 
L 285.790498 163.482786 
L 287.01407 163.497839 
L 287.625857 158.213654 
L 289.155322 158.173583 
L 290.684788 158.264781 
L 290.990681 157.917667 
L 291.296574 157.999141 
L 291.602467 160.704966 
L 292.214253 155.632194 
L 292.826039 160.736152 
L 293.131932 160.910786 
L 293.437825 160.897631 
L 293.743719 163.491136 
L 294.049612 163.494046 
L 294.661398 158.364693 
L 294.967291 158.361857 
L 295.273184 163.492082 
L 295.579077 166.247737 
L 296.80265 166.250052 
L 297.108543 199.967709 
L 297.414436 163.469269 
L 297.720329 163.464129 
L 298.026222 166.251321 
L 298.332115 166.40108 
L 298.638008 158.138185 
L 298.943901 161.189243 
L 299.249794 171.820496 
L 299.555688 177.390597 
L 299.861581 171.831247 
L 300.167474 169.399454 
L 300.473367 171.82722 
L 300.77926 180.16888 
L 301.696939 188.517419 
L 302.002832 188.522133 
L 302.308725 191.301673 
L 302.614619 182.958415 
L 302.920512 182.953054 
L 303.226405 188.524854 
L 303.532298 191.301979 
L 303.838191 191.309363 
L 304.144084 194.08827 
L 304.449977 194.089736 
L 304.75587 196.869572 
L 305.061763 191.309176 
L 305.367656 191.303558 
L 305.67355 188.523493 
L 305.979443 196.864506 
L 306.591229 196.8729 
L 306.897122 199.654478 
L 307.203015 199.655495 
L 307.508908 202.43576 
L 308.426587 202.435781 
L 308.732481 205.223543 
L 309.038374 205.221608 
L 309.65016 199.654407 
L 312.097305 199.642927 
L 312.403198 202.407836 
L 313.014984 202.401853 
L 313.320877 191.304445 
L 313.932663 196.877616 
L 314.238556 196.946624 
L 314.54445 199.655802 
L 314.850343 199.661742 
L 315.156236 202.441187 
L 315.462129 202.439482 
L 315.768022 199.654661 
L 316.073915 199.767381 
L 316.379808 199.674509 
L 316.685701 202.445121 
L 316.991594 202.470672 
L 317.297487 205.224623 
L 318.52106 205.21083 
L 318.826953 202.429957 
L 319.132846 205.224922 
L 319.438739 205.223346 
L 319.744632 207.995637 
L 320.050525 208.003385 
L 320.356418 210.78456 
L 322.49767 210.784093 
L 322.803563 213.568208 
L 323.109456 213.578058 
L 323.415349 216.354524 
L 323.721243 216.34898 
L 324.027136 219.135276 
L 324.333029 219.13252 
L 324.638922 216.34847 
L 324.944815 219.135718 
L 325.556601 219.134809 
L 325.862494 221.917 
L 326.168387 221.908303 
L 326.47428 224.685473 
L 326.780174 224.669958 
L 327.086067 227.452141 
L 328.003746 227.454421 
L 328.309639 219.133836 
L 328.615532 221.918294 
L 328.921425 227.484495 
L 329.227318 230.263498 
L 329.533212 230.262586 
L 329.839105 233.05131 
L 330.756784 233.044724 
L 331.062677 230.262535 
L 331.980356 238.605012 
L 332.286249 238.609614 
L 332.592143 241.394308 
L 333.203929 241.391786 
L 333.509822 244.176724 
L 333.815715 241.389955 
L 334.121608 241.398164 
L 334.427501 244.173032 
L 335.039287 244.182722 
L 335.34518 246.958889 
L 335.956967 246.966203 
L 336.26286 249.726101 
L 338.098218 249.728166 
L 338.404111 252.51675 
L 339.015898 252.505942 
L 339.321791 255.2955 
L 340.23947 255.283989 
L 340.545363 258.065273 
L 341.157149 258.052948 
L 341.463042 252.486669 
L 341.768936 249.705076 
L 342.992508 249.737525 
L 344.521974 263.647424 
L 345.13376 263.651085 
L 345.439653 266.43143 
L 347.275011 266.434811 
L 347.886798 272.000791 
L 348.192691 271.996787 
L 348.498584 274.774788 
L 348.804477 271.99897 
L 350.639836 271.992991 
L 350.945729 274.78113 
L 351.557515 274.778854 
L 351.863408 277.561037 
L 352.169301 277.56057 
L 352.781087 283.128608 
L 353.392873 283.128684 
L 353.698767 285.910345 
L 354.310553 285.909024 
L 354.616446 288.6852 
L 354.922339 288.683843 
L 355.228232 280.331328 
L 355.534125 285.898669 
L 355.840018 288.68289 
L 356.145911 288.679714 
L 356.451804 294.252742 
L 356.757698 297.032179 
L 357.063591 297.0331 
L 357.369484 299.81537 
L 357.98127 299.814838 
L 358.287163 302.598189 
L 358.898949 302.596556 
L 359.204842 299.819384 
L 359.510735 299.814814 
L 359.816629 302.604456 
L 360.122522 302.601571 
L 360.428415 305.382428 
L 360.734308 305.380999 
L 361.040201 308.165012 
L 361.346094 308.165013 
L 361.651987 310.947204 
L 362.569667 310.945378 
L 362.87556 313.73078 
L 363.487346 313.731265 
L 363.793239 310.951282 
L 364.099132 313.731347 
L 364.405025 310.94535 
L 364.710918 310.94215 
L 365.016811 313.715884 
L 365.322704 313.71566 
L 365.628598 319.279125 
L 366.546277 319.280982 
L 366.85217 322.066149 
L 367.463956 322.065893 
L 367.769849 324.850427 
L 368.075742 324.84724 
L 368.381635 322.068262 
L 368.993422 322.064046 
L 369.299315 324.846236 
L 369.605208 322.064057 
L 369.911101 324.847364 
L 370.216994 285.898669 
L 370.522887 288.68289 
L 370.82878 288.679714 
L 371.134673 294.252742 
L 371.440566 297.032179 
L 371.74646 297.0331 
L 372.052353 299.81537 
L 372.664139 299.814838 
L 372.970032 302.598189 
L 373.581818 302.596556 
L 373.581818 302.596556 
" clip-path="url(#pba74420553)" style="fill: none; stroke-dasharray: 3.7,1.6; stroke-dashoffset: 0; stroke: #00bfbf"/>
   </g>
   <g id="patch_3">
    <path d="M 54 384.48 
L 54 51.84 
" style="fill: none; stroke: #000000; stroke-width: 0.8; stroke-linejoin: miter; stroke-linecap: square"/>
   </g>
   <g id="patch_4">
    <path d="M 388.8 384.48 
L 388.8 51.84 
" style="fill: none; stroke: #000000; stroke-width: 0.8; stroke-linejoin: miter; stroke-linecap: square"/>
   </g>
   <g id="patch_5">
    <path d="M 54 384.48 
L 388.8 384.48 
" style="fill: none; stroke: #000000; stroke-width: 0.8; stroke-linejoin: miter; stroke-linecap: square"/>
   </g>
   <g id="patch_6">
    <path d="M 54 51.84 
L 388.8 51.84 
" style="fill: none; stroke: #000000; stroke-width: 0.8; stroke-linejoin: miter; stroke-linecap: square"/>
   </g>
   <g id="text_14">
    <!-- Capacity degradation at ambient temperature of 1C -->
    <g transform="translate(61.930313 45.84) scale(0.12 -0.12)">
     <defs>
      <path id="DejaVuSans-64" d="M 2906 2969 
L 2906 4863 
L 3481 4863 
L 3481 0 
L 2906 0 
L 2906 525 
Q 2725 213 2448 61 
Q 2172 -91 1784 -91 
Q 1150 -91 751 415 
Q 353 922 353 1747 
Q 353 2572 751 3078 
Q 1150 3584 1784 3584 
Q 2172 3584 2448 3432 
Q 2725 3281 2906 2969 
z
M 947 1747 
Q 947 1113 1208 752 
Q 1469 391 1925 391 
Q 2381 391 2643 752 
Q 2906 1113 2906 1747 
Q 2906 2381 2643 2742 
Q 2381 3103 1925 3103 
Q 1469 3103 1208 2742 
Q 947 2381 947 1747 
z
" transform="scale(0.015625)"/>
      <path id="DejaVuSans-6f" d="M 1959 3097 
Q 1497 3097 1228 2736 
Q 959 2375 959 1747 
Q 959 1119 1226 758 
Q 1494 397 1959 397 
Q 2419 397 2687 759 
Q 2956 1122 2956 1747 
Q 2956 2369 2687 2733 
Q 2419 3097 1959 3097 
z
M 1959 3584 
Q 2709 3584 3137 3096 
Q 3566 2609 3566 1747 
Q 3566 888 3137 398 
Q 2709 -91 1959 -91 
Q 1206 -91 779 398 
Q 353 888 353 1747 
Q 353 2609 779 3096 
Q 1206 3584 1959 3584 
z
" transform="scale(0.015625)"/>
      <path id="DejaVuSans-6e" d="M 3513 2113 
L 3513 0 
L 2938 0 
L 2938 2094 
Q 2938 2591 2744 2837 
Q 2550 3084 2163 3084 
Q 1697 3084 1428 2787 
Q 1159 2491 1159 1978 
L 1159 0 
L 581 0 
L 581 3500 
L 1159 3500 
L 1159 2956 
Q 1366 3272 1645 3428 
Q 1925 3584 2291 3584 
Q 2894 3584 3203 3211 
Q 3513 2838 3513 2113 
z
" transform="scale(0.015625)"/>
      <path id="DejaVuSans-6d" d="M 3328 2828 
Q 3544 3216 3844 3400 
Q 4144 3584 4550 3584 
Q 5097 3584 5394 3201 
Q 5691 2819 5691 2113 
L 5691 0 
L 5113 0 
L 5113 2094 
Q 5113 2597 4934 2840 
Q 4756 3084 4391 3084 
Q 3944 3084 3684 2787 
Q 3425 2491 3425 1978 
L 3425 0 
L 2847 0 
L 2847 2094 
Q 2847 2600 2669 2842 
Q 2491 3084 2119 3084 
Q 1678 3084 1418 2786 
Q 1159 2488 1159 1978 
L 1159 0 
L 581 0 
L 581 3500 
L 1159 3500 
L 1159 2956 
Q 1356 3278 1631 3431 
Q 1906 3584 2284 3584 
Q 2666 3584 2933 3390 
Q 3200 3197 3328 2828 
z
" transform="scale(0.015625)"/>
      <path id="DejaVuSans-62" d="M 3116 1747 
Q 3116 2381 2855 2742 
Q 2594 3103 2138 3103 
Q 1681 3103 1420 2742 
Q 1159 2381 1159 1747 
Q 1159 1113 1420 752 
Q 1681 391 2138 391 
Q 2594 391 2855 752 
Q 3116 1113 3116 1747 
z
M 1159 2969 
Q 1341 3281 1617 3432 
Q 1894 3584 2278 3584 
Q 2916 3584 3314 3078 
Q 3713 2572 3713 1747 
Q 3713 922 3314 415 
Q 2916 -91 2278 -91 
Q 1894 -91 1617 61 
Q 1341 213 1159 525 
L 1159 0 
L 581 0 
L 581 4863 
L 1159 4863 
L 1159 2969 
z
" transform="scale(0.015625)"/>
      <path id="DejaVuSans-75" d="M 544 1381 
L 544 3500 
L 1119 3500 
L 1119 1403 
Q 1119 906 1312 657 
Q 1506 409 1894 409 
Q 2359 409 2629 706 
Q 2900 1003 2900 1516 
L 2900 3500 
L 3475 3500 
L 3475 0 
L 2900 0 
L 2900 538 
Q 2691 219 2414 64 
Q 2138 -91 1772 -91 
Q 1169 -91 856 284 
Q 544 659 544 1381 
z
M 1991 3584 
L 1991 3584 
z
" transform="scale(0.015625)"/>
      <path id="DejaVuSans-66" d="M 2375 4863 
L 2375 4384 
L 1825 4384 
Q 1516 4384 1395 4259 
Q 1275 4134 1275 3809 
L 1275 3500 
L 2222 3500 
L 2222 3053 
L 1275 3053 
L 1275 0 
L 697 0 
L 697 3053 
L 147 3053 
L 147 3500 
L 697 3500 
L 697 3744 
Q 697 4328 969 4595 
Q 1241 4863 1831 4863 
L 2375 4863 
z
" transform="scale(0.015625)"/>
      <path id="DejaVuSans-b0" d="M 1600 4347 
Q 1350 4347 1178 4173 
Q 1006 4000 1006 3750 
Q 1006 3503 1178 3333 
Q 1350 3163 1600 3163 
Q 1850 3163 2022 3333 
Q 2194 3503 2194 3750 
Q 2194 3997 2020 4172 
Q 1847 4347 1600 4347 
z
M 1600 4750 
Q 1800 4750 1984 4673 
Q 2169 4597 2303 4453 
Q 2447 4313 2519 4134 
Q 2591 3956 2591 3750 
Q 2591 3338 2302 3052 
Q 2013 2766 1594 2766 
Q 1172 2766 890 3047 
Q 609 3328 609 3750 
Q 609 4169 896 4459 
Q 1184 4750 1600 4750 
z
" transform="scale(0.015625)"/>
     </defs>
     <use xlink:href="#DejaVuSans-43"/>
     <use xlink:href="#DejaVuSans-61" x="69.824219"/>
     <use xlink:href="#DejaVuSans-70" x="131.103516"/>
     <use xlink:href="#DejaVuSans-61" x="194.580078"/>
     <use xlink:href="#DejaVuSans-63" x="255.859375"/>
     <use xlink:href="#DejaVuSans-69" x="310.839844"/>
     <use xlink:href="#DejaVuSans-74" x="338.623047"/>
     <use xlink:href="#DejaVuSans-79" x="377.832031"/>
     <use xlink:href="#DejaVuSans-20" x="437.011719"/>
     <use xlink:href="#DejaVuSans-64" x="468.798828"/>
     <use xlink:href="#DejaVuSans-65" x="532.275391"/>
     <use xlink:href="#DejaVuSans-67" x="593.798828"/>
     <use xlink:href="#DejaVuSans-72" x="657.275391"/>
     <use xlink:href="#DejaVuSans-61" x="698.388672"/>
     <use xlink:href="#DejaVuSans-64" x="759.667969"/>
     <use xlink:href="#DejaVuSans-61" x="823.144531"/>
     <use xlink:href="#DejaVuSans-74" x="884.423828"/>
     <use xlink:href="#DejaVuSans-69" x="923.632812"/>
     <use xlink:href="#DejaVuSans-6f" x="951.416016"/>
     <use xlink:href="#DejaVuSans-6e" x="1012.597656"/>
     <use xlink:href="#DejaVuSans-20" x="1075.976562"/>
     <use xlink:href="#DejaVuSans-61" x="1107.763672"/>
     <use xlink:href="#DejaVuSans-74" x="1169.042969"/>
     <use xlink:href="#DejaVuSans-20" x="1208.251953"/>
     <use xlink:href="#DejaVuSans-61" x="1240.039062"/>
     <use xlink:href="#DejaVuSans-6d" x="1301.318359"/>
     <use xlink:href="#DejaVuSans-62" x="1398.730469"/>
     <use xlink:href="#DejaVuSans-69" x="1462.207031"/>
     <use xlink:href="#DejaVuSans-65" x="1489.990234"/>
     <use xlink:href="#DejaVuSans-6e" x="1551.513672"/>
     <use xlink:href="#DejaVuSans-74" x="1614.892578"/>
     <use xlink:href="#DejaVuSans-20" x="1654.101562"/>
     <use xlink:href="#DejaVuSans-74" x="1685.888672"/>
     <use xlink:href="#DejaVuSans-65" x="1725.097656"/>
     <use xlink:href="#DejaVuSans-6d" x="1786.621094"/>
     <use xlink:href="#DejaVuSans-70" x="1884.033203"/>
     <use xlink:href="#DejaVuSans-65" x="1947.509766"/>
     <use xlink:href="#DejaVuSans-72" x="2009.033203"/>
     <use xlink:href="#DejaVuSans-61" x="2050.146484"/>
     <use xlink:href="#DejaVuSans-74" x="2111.425781"/>
     <use xlink:href="#DejaVuSans-75" x="2150.634766"/>
     <use xlink:href="#DejaVuSans-72" x="2214.013672"/>
     <use xlink:href="#DejaVuSans-65" x="2252.876953"/>
     <use xlink:href="#DejaVuSans-20" x="2314.400391"/>
     <use xlink:href="#DejaVuSans-6f" x="2346.1875"/>
     <use xlink:href="#DejaVuSans-66" x="2407.369141"/>
     <use xlink:href="#DejaVuSans-20" x="2442.574219"/>
     <use xlink:href="#DejaVuSans-31" x="2474.361328"/>
     <use xlink:href="#DejaVuSans-b0" x="2537.984375"/>
     <use xlink:href="#DejaVuSans-43" x="2587.984375"/>
    </g>
   </g>
   <g id="legend_1">
    <g id="line2d_16">
     <path d="M 314.38125 64.938437 
L 324.38125 64.938437 
L 334.38125 64.938437 
" style="fill: none; stroke-dasharray: 3.7,1.6; stroke-dashoffset: 0; stroke: #0000ff"/>
    </g>
    <g id="text_15">
     <!-- CS2_35 -->
     <g transform="translate(342.38125 68.438437) scale(0.1 -0.1)">
      <defs>
       <path id="DejaVuSans-53" d="M 3425 4513 
L 3425 3897 
Q 3066 4069 2747 4153 
Q 2428 4238 2131 4238 
Q 1616 4238 1336 4038 
Q 1056 3838 1056 3469 
Q 1056 3159 1242 3001 
Q 1428 2844 1947 2747 
L 2328 2669 
Q 3034 2534 3370 2195 
Q 3706 1856 3706 1288 
Q 3706 609 3251 259 
Q 2797 -91 1919 -91 
Q 1588 -91 1214 -16 
Q 841 59 441 206 
L 441 856 
Q 825 641 1194 531 
Q 1563 422 1919 422 
Q 2459 422 2753 634 
Q 3047 847 3047 1241 
Q 3047 1584 2836 1778 
Q 2625 1972 2144 2069 
L 1759 2144 
Q 1053 2284 737 2584 
Q 422 2884 422 3419 
Q 422 4038 858 4394 
Q 1294 4750 2059 4750 
Q 2388 4750 2728 4690 
Q 3069 4631 3425 4513 
z
" transform="scale(0.015625)"/>
       <path id="DejaVuSans-5f" d="M 3263 -1063 
L 3263 -1509 
L -63 -1509 
L -63 -1063 
L 3263 -1063 
z
" transform="scale(0.015625)"/>
       <path id="DejaVuSans-33" d="M 2597 2516 
Q 3050 2419 3304 2112 
Q 3559 1806 3559 1356 
Q 3559 666 3084 287 
Q 2609 -91 1734 -91 
Q 1441 -91 1130 -33 
Q 819 25 488 141 
L 488 750 
Q 750 597 1062 519 
Q 1375 441 1716 441 
Q 2309 441 2620 675 
Q 2931 909 2931 1356 
Q 2931 1769 2642 2001 
Q 2353 2234 1838 2234 
L 1294 2234 
L 1294 2753 
L 1863 2753 
Q 2328 2753 2575 2939 
Q 2822 3125 2822 3475 
Q 2822 3834 2567 4026 
Q 2313 4219 1838 4219 
Q 1578 4219 1281 4162 
Q 984 4106 628 3988 
L 628 4550 
Q 988 4650 1302 4700 
Q 1616 4750 1894 4750 
Q 2613 4750 3031 4423 
Q 3450 4097 3450 3541 
Q 3450 3153 3228 2886 
Q 3006 2619 2597 2516 
z
" transform="scale(0.015625)"/>
       <path id="DejaVuSans-35" d="M 691 4666 
L 3169 4666 
L 3169 4134 
L 1269 4134 
L 1269 2991 
Q 1406 3038 1543 3061 
Q 1681 3084 1819 3084 
Q 2600 3084 3056 2656 
Q 3513 2228 3513 1497 
Q 3513 744 3044 326 
Q 2575 -91 1722 -91 
Q 1428 -91 1123 -41 
Q 819 9 494 109 
L 494 744 
Q 775 591 1075 516 
Q 1375 441 1709 441 
Q 2250 441 2565 725 
Q 2881 1009 2881 1497 
Q 2881 1984 2565 2268 
Q 2250 2553 1709 2553 
Q 1456 2553 1204 2497 
Q 953 2441 691 2322 
L 691 4666 
z
" transform="scale(0.015625)"/>
      </defs>
      <use xlink:href="#DejaVuSans-43"/>
      <use xlink:href="#DejaVuSans-53" x="69.824219"/>
      <use xlink:href="#DejaVuSans-32" x="133.300781"/>
      <use xlink:href="#DejaVuSans-5f" x="196.923828"/>
      <use xlink:href="#DejaVuSans-33" x="246.923828"/>
      <use xlink:href="#DejaVuSans-35" x="310.546875"/>
     </g>
    </g>
    <g id="line2d_17">
     <path d="M 314.38125 79.894687 
L 324.38125 79.894687 
L 334.38125 79.894687 
" style="fill: none; stroke-dasharray: 3.7,1.6; stroke-dashoffset: 0; stroke: #008000"/>
    </g>
    <g id="text_16">
     <!-- CS2_36 -->
     <g transform="translate(342.38125 83.394687) scale(0.1 -0.1)">
      <use xlink:href="#DejaVuSans-43"/>
      <use xlink:href="#DejaVuSans-53" x="69.824219"/>
      <use xlink:href="#DejaVuSans-32" x="133.300781"/>
      <use xlink:href="#DejaVuSans-5f" x="196.923828"/>
      <use xlink:href="#DejaVuSans-33" x="246.923828"/>
      <use xlink:href="#DejaVuSans-36" x="310.546875"/>
     </g>
    </g>
    <g id="line2d_18">
     <path d="M 314.38125 94.850937 
L 324.38125 94.850937 
L 334.38125 94.850937 
" style="fill: none; stroke-dasharray: 3.7,1.6; stroke-dashoffset: 0; stroke: #ff0000"/>
    </g>
    <g id="text_17">
     <!-- CS2_37 -->
     <g transform="translate(342.38125 98.350937) scale(0.1 -0.1)">
      <defs>
       <path id="DejaVuSans-37" d="M 525 4666 
L 3525 4666 
L 3525 4397 
L 1831 0 
L 1172 0 
L 2766 4134 
L 525 4134 
L 525 4666 
z
" transform="scale(0.015625)"/>
      </defs>
      <use xlink:href="#DejaVuSans-43"/>
      <use xlink:href="#DejaVuSans-53" x="69.824219"/>
      <use xlink:href="#DejaVuSans-32" x="133.300781"/>
      <use xlink:href="#DejaVuSans-5f" x="196.923828"/>
      <use xlink:href="#DejaVuSans-33" x="246.923828"/>
      <use xlink:href="#DejaVuSans-37" x="310.546875"/>
     </g>
    </g>
    <g id="line2d_19">
     <path d="M 314.38125 109.807187 
L 324.38125 109.807187 
L 334.38125 109.807187 
" style="fill: none; stroke-dasharray: 3.7,1.6; stroke-dashoffset: 0; stroke: #00bfbf"/>
    </g>
    <g id="text_18">
     <!-- CS2_38 -->
     <g transform="translate(342.38125 113.307187) scale(0.1 -0.1)">
      <use xlink:href="#DejaVuSans-43"/>
      <use xlink:href="#DejaVuSans-53" x="69.824219"/>
      <use xlink:href="#DejaVuSans-32" x="133.300781"/>
      <use xlink:href="#DejaVuSans-5f" x="196.923828"/>
      <use xlink:href="#DejaVuSans-33" x="246.923828"/>
      <use xlink:href="#DejaVuSans-38" x="310.546875"/>
     </g>
    </g>
   </g>
  </g>
 </g>
 <defs>
  <clipPath id="pba74420553">
   <rect x="54" y="51.84" width="334.8" height="332.64"/>
  </clipPath>
 </defs>
</svg>
